<svg width="994" height="84" viewBox="0 0 994 84" fill="none" xmlns="http://www.w3.org/2000/svg">
<rect y="0.562744" width="994" height="83" rx="5" fill="#373737"/>
<path d="M18.0769 25.6318V16.6098H20.8849C22.7829 16.6098 24.0569 17.7538 24.0569 19.4828C24.0569 21.2898 22.7049 22.4858 20.6899 22.4858H18.7659V21.5498H20.8849C22.2239 21.5498 22.9519 20.8998 22.9519 19.6778C22.9519 18.4038 22.0679 17.5458 20.7549 17.5458H19.1559V25.6318H18.0769ZM27.8899 25.7618C26.1089 25.7618 24.9649 24.5008 24.9649 22.5638C24.9649 20.5618 26.1999 19.2358 28.0459 19.2358C29.8269 19.2358 30.9839 20.4838 30.9839 22.4208C30.9839 24.4228 29.7359 25.7618 27.8899 25.7618ZM28.0329 24.8518C29.1899 24.8518 29.9439 23.9418 29.9439 22.5638C29.9439 21.1338 29.1119 20.1458 27.9029 20.1458C26.7459 20.1458 26.0049 21.0428 26.0049 22.4338C26.0049 23.8768 26.8239 24.8518 28.0329 24.8518ZM40.9078 25.6318V21.7318C40.9078 20.7178 40.3618 20.1458 39.3608 20.1458C38.6458 20.1458 37.9698 20.4448 37.4628 20.9778L37.2158 20.3148C37.8658 19.6258 38.7498 19.2358 39.6468 19.2358C41.0378 19.2358 41.9478 20.1328 41.9478 21.5238V25.6318H40.9078ZM32.4838 25.6318V19.3658H33.2118L33.5238 20.0938V25.6318H32.4838ZM36.6958 25.6318V21.7318C36.6958 20.7178 36.1498 20.1458 35.1488 20.1458C34.4338 20.1458 33.7578 20.4448 33.2508 20.9778L33.0038 20.3148C33.6538 19.6258 34.5378 19.2358 35.4478 19.2358C36.8258 19.2358 37.7358 20.1328 37.7358 21.5238V25.6318H36.6958ZM46.2605 25.7618C44.4795 25.7618 43.3355 24.5008 43.3355 22.5638C43.3355 20.5618 44.5705 19.2358 46.4165 19.2358C48.1975 19.2358 49.3545 20.4838 49.3545 22.4208C49.3545 24.4228 48.1065 25.7618 46.2605 25.7618ZM46.4035 24.8518C47.5605 24.8518 48.3145 23.9418 48.3145 22.5638C48.3145 21.1338 47.4825 20.1458 46.2735 20.1458C45.1165 20.1458 44.3755 21.0428 44.3755 22.4338C44.3755 23.8768 45.1945 24.8518 46.4035 24.8518ZM53.2465 25.7618C51.5695 25.7618 50.4515 24.4748 50.4515 22.5508C50.4515 20.5618 51.6215 19.2358 53.3895 19.2358C54.4295 19.2358 55.2355 19.7168 55.6905 20.5618L55.2095 21.1338C54.8455 20.5098 54.2215 20.1458 53.4285 20.1458C52.2195 20.1458 51.4915 21.0558 51.4915 22.4338C51.4915 23.8768 52.2975 24.8518 53.5455 24.8518C54.2865 24.8518 54.8715 24.5008 55.2225 23.9158L55.5995 24.3838C55.1185 25.2418 54.2995 25.7618 53.2465 25.7618ZM55.3785 25.6318L55.0665 24.9038V16.0248H56.1065V25.6318H55.3785ZM60.5305 25.7618C58.7495 25.7618 57.6055 24.5008 57.6055 22.5638C57.6055 20.5618 58.8405 19.2358 60.6865 19.2358C62.4675 19.2358 63.6245 20.4838 63.6245 22.4208C63.6245 24.4228 62.3765 25.7618 60.5305 25.7618ZM60.6735 24.8518C61.8305 24.8518 62.5845 23.9418 62.5845 22.5638C62.5845 21.1338 61.7525 20.1458 60.5435 20.1458C59.3865 20.1458 58.6455 21.0428 58.6455 22.4338C58.6455 23.8768 59.4645 24.8518 60.6735 24.8518ZM65.1245 25.6318V19.3658H65.9825L66.1645 20.8218V25.6318H65.1245ZM65.9305 21.5628V20.5098C66.3985 19.7558 67.1785 19.3008 68.0235 19.3008C68.3095 19.3008 68.5825 19.3528 68.8555 19.4438L68.5955 20.4058C68.3875 20.3278 68.1535 20.2888 67.9065 20.2888C67.0485 20.2888 66.2945 20.7698 65.9305 21.5628ZM72.2869 25.7618C70.5059 25.7618 69.3619 24.5008 69.3619 22.5638C69.3619 20.5618 70.5969 19.2358 72.4429 19.2358C74.2239 19.2358 75.3809 20.4838 75.3809 22.4208C75.3809 24.4228 74.1329 25.7618 72.2869 25.7618ZM72.4299 24.8518C73.5869 24.8518 74.3409 23.9418 74.3409 22.5638C74.3409 21.1338 73.5089 20.1458 72.2999 20.1458C71.1429 20.1458 70.4019 21.0428 70.4019 22.4338C70.4019 23.8768 71.2209 24.8518 72.4299 24.8518ZM81.5313 25.6318V17.5458H78.5283V16.6098H85.6263V17.5458H82.6103V25.6318H81.5313ZM86.5806 25.6318V19.3658H87.6206V25.6318H86.5806ZM87.1136 17.8968C86.6456 17.8968 86.3726 17.6238 86.3726 17.1558C86.3726 16.6878 86.6456 16.4148 87.1136 16.4148C87.5816 16.4148 87.8546 16.6878 87.8546 17.1558C87.8546 17.6238 87.5816 17.8968 87.1136 17.8968ZM97.9438 25.6318V21.7318C97.9438 20.7178 97.3978 20.1458 96.3968 20.1458C95.6818 20.1458 95.0058 20.4448 94.4988 20.9778L94.2518 20.3148C94.9018 19.6258 95.7858 19.2358 96.6828 19.2358C98.0738 19.2358 98.9838 20.1328 98.9838 21.5238V25.6318H97.9438ZM89.5198 25.6318V19.3658H90.2478L90.5598 20.0938V25.6318H89.5198ZM93.7318 25.6318V21.7318C93.7318 20.7178 93.1858 20.1458 92.1848 20.1458C91.4698 20.1458 90.7938 20.4448 90.2868 20.9778L90.0398 20.3148C90.6898 19.6258 91.5738 19.2358 92.4838 19.2358C93.8618 19.2358 94.7718 20.1328 94.7718 21.5238V25.6318H93.7318ZM103.595 25.7618C101.606 25.7618 100.371 24.5268 100.371 22.5248C100.371 20.6008 101.554 19.2358 103.296 19.2358C104.843 19.2358 105.883 20.3148 105.883 21.8878C105.883 22.1348 105.857 22.5898 105.831 22.7848H101.255V22.0048H104.908C104.908 20.8088 104.284 20.1198 103.218 20.1198C102.074 20.1198 101.437 20.8998 101.437 22.3168C101.437 23.9418 102.308 24.9168 103.777 24.9168C104.323 24.9168 104.934 24.7738 105.415 24.5398L105.649 25.2938C105.09 25.5928 104.31 25.7618 103.595 25.7618ZM107.383 25.6318V19.3658H108.241L108.423 20.8218V25.6318H107.383ZM108.189 21.5628V20.5098C108.657 19.7558 109.437 19.3008 110.282 19.3008C110.568 19.3008 110.841 19.3528 111.114 19.4438L110.854 20.4058C110.646 20.3278 110.412 20.2888 110.165 20.2888C109.307 20.2888 108.553 20.7698 108.189 21.5628Z" fill="#F5F4E7"/>
<path d="M17.9389 64.8068V63.5418C23.6429 58.1598 25.5059 55.7448 25.5059 53.4218C25.5059 51.5128 24.2409 50.2938 22.1939 50.2938C20.9519 50.2938 19.4339 50.7768 18.2149 51.7658L17.6859 50.4318C18.8589 49.3048 20.6759 48.6148 22.5849 48.6148C25.5289 48.6148 27.4379 50.3168 27.4379 53.1228C27.4379 55.9058 25.5979 58.5738 20.1469 63.7028L19.8939 63.1508H28.0589V64.8068H17.9389ZM33.9313 64.9218V50.2018L34.5293 50.7768L29.6533 53.0998L28.9633 51.7888L34.6443 48.8448H35.7483V64.9218H33.9313ZM41.2418 65.0368C40.3678 65.0368 39.7698 64.4158 39.7698 63.5648C39.7698 62.7138 40.3678 62.0928 41.2418 62.0928C42.1158 62.0928 42.7138 62.7138 42.7138 63.5648C42.7138 64.4158 42.1158 65.0368 41.2418 65.0368ZM41.2418 56.6648C40.3678 56.6648 39.7698 56.0438 39.7698 55.1928C39.7698 54.3418 40.3678 53.7208 41.2418 53.7208C42.1158 53.7208 42.7138 54.3418 42.7138 55.1928C42.7138 56.0438 42.1158 56.6648 41.2418 56.6648ZM45.0106 64.8068V63.5418C50.7146 58.1598 52.5776 55.7448 52.5776 53.4218C52.5776 51.5128 51.3126 50.2938 49.2656 50.2938C48.0236 50.2938 46.5056 50.7768 45.2866 51.7658L44.7576 50.4318C45.9306 49.3048 47.7476 48.6148 49.6566 48.6148C52.6006 48.6148 54.5096 50.3168 54.5096 53.1228C54.5096 55.9058 52.6696 58.5738 47.2186 63.7028L46.9656 63.1508H55.1306V64.8068H45.0106ZM62.889 65.0368C59.37 65.0368 57.208 61.9778 57.208 56.9408C57.208 51.7658 59.439 48.6148 63.05 48.6148C66.523 48.6148 68.662 51.6968 68.662 56.7108C68.662 61.9088 66.454 65.0368 62.889 65.0368ZM63.027 63.4038C65.327 63.4038 66.73 60.9658 66.73 56.9408C66.73 52.7778 65.258 50.2478 62.912 50.2478C60.589 50.2478 59.14 52.6858 59.14 56.7108C59.14 60.8968 60.635 63.4038 63.027 63.4038Z" fill="#F5F4E7"/>
</svg>
