<svg width="994" height="190" viewBox="0 0 994 190" fill="none" xmlns="http://www.w3.org/2000/svg">
<rect width="994" height="190" rx="5" fill="#373737"/>
<path d="M18.0769 25.3148V16.2928H20.8849C22.7829 16.2928 24.0569 17.4368 24.0569 19.1658C24.0569 20.9728 22.7049 22.1688 20.6899 22.1688H18.7659V21.2328H20.8849C22.2239 21.2328 22.9519 20.5828 22.9519 19.3608C22.9519 18.0868 22.0679 17.2288 20.7549 17.2288H19.1559V25.3148H18.0769ZM27.6949 25.4448C25.9139 25.4448 24.7699 24.1838 24.7699 22.2468C24.7699 20.2448 26.0049 18.9188 27.8509 18.9188C29.6319 18.9188 30.7889 20.1668 30.7889 22.1038C30.7889 24.1058 29.5409 25.4448 27.6949 25.4448ZM27.8379 24.5348C28.9949 24.5348 29.7489 23.6248 29.7489 22.2468C29.7489 20.8168 28.9169 19.8288 27.7079 19.8288C26.5509 19.8288 25.8099 20.7258 25.8099 22.1168C25.8099 23.5598 26.6289 24.5348 27.8379 24.5348ZM40.5178 25.3148V21.4148C40.5178 20.4008 39.9718 19.8288 38.9708 19.8288C38.2558 19.8288 37.5798 20.1278 37.0728 20.6608L36.8258 19.9978C37.4758 19.3088 38.3598 18.9188 39.2568 18.9188C40.6478 18.9188 41.5578 19.8158 41.5578 21.2068V25.3148H40.5178ZM32.0938 25.3148V19.0488H32.8218L33.1338 19.7768V25.3148H32.0938ZM36.3058 25.3148V21.4148C36.3058 20.4008 35.7598 19.8288 34.7588 19.8288C34.0438 19.8288 33.3678 20.1278 32.8608 20.6608L32.6138 19.9978C33.2638 19.3088 34.1478 18.9188 35.0578 18.9188C36.4358 18.9188 37.3458 19.8158 37.3458 21.2068V25.3148H36.3058ZM45.6755 25.4448C43.8945 25.4448 42.7505 24.1838 42.7505 22.2468C42.7505 20.2448 43.9855 18.9188 45.8315 18.9188C47.6125 18.9188 48.7695 20.1668 48.7695 22.1038C48.7695 24.1058 47.5215 25.4448 45.6755 25.4448ZM45.8185 24.5348C46.9755 24.5348 47.7295 23.6248 47.7295 22.2468C47.7295 20.8168 46.8975 19.8288 45.6885 19.8288C44.5315 19.8288 43.7905 20.7258 43.7905 22.1168C43.7905 23.5598 44.6095 24.5348 45.8185 24.5348ZM52.4665 25.4448C50.7895 25.4448 49.6715 24.1578 49.6715 22.2338C49.6715 20.2448 50.8415 18.9188 52.6095 18.9188C53.6495 18.9188 54.4555 19.3998 54.9105 20.2448L54.4295 20.8168C54.0655 20.1928 53.4415 19.8288 52.6485 19.8288C51.4395 19.8288 50.7115 20.7388 50.7115 22.1168C50.7115 23.5598 51.5175 24.5348 52.7655 24.5348C53.5065 24.5348 54.0915 24.1838 54.4425 23.5988L54.8195 24.0668C54.3385 24.9248 53.5195 25.4448 52.4665 25.4448ZM54.5985 25.3148L54.2865 24.5868V15.7078H55.3265V25.3148H54.5985ZM59.5555 25.4448C57.7745 25.4448 56.6305 24.1838 56.6305 22.2468C56.6305 20.2448 57.8655 18.9188 59.7115 18.9188C61.4925 18.9188 62.6495 20.1668 62.6495 22.1038C62.6495 24.1058 61.4015 25.4448 59.5555 25.4448ZM59.6985 24.5348C60.8555 24.5348 61.6095 23.6248 61.6095 22.2468C61.6095 20.8168 60.7775 19.8288 59.5685 19.8288C58.4115 19.8288 57.6705 20.7258 57.6705 22.1168C57.6705 23.5598 58.4895 24.5348 59.6985 24.5348ZM63.9545 25.3148V19.0488H64.8125L64.9945 20.5048V25.3148H63.9545ZM64.7605 21.2458V20.1928C65.2285 19.4388 66.0085 18.9838 66.8535 18.9838C67.1395 18.9838 67.4125 19.0358 67.6855 19.1268L67.4255 20.0888C67.2175 20.0108 66.9835 19.9718 66.7365 19.9718C65.8785 19.9718 65.1245 20.4528 64.7605 21.2458ZM70.9219 25.4448C69.1409 25.4448 67.9969 24.1838 67.9969 22.2468C67.9969 20.2448 69.2319 18.9188 71.0779 18.9188C72.8589 18.9188 74.0159 20.1668 74.0159 22.1038C74.0159 24.1058 72.7679 25.4448 70.9219 25.4448ZM71.0649 24.5348C72.2219 24.5348 72.9759 23.6248 72.9759 22.2468C72.9759 20.8168 72.1439 19.8288 70.9349 19.8288C69.7779 19.8288 69.0369 20.7258 69.0369 22.1168C69.0369 23.5598 69.8559 24.5348 71.0649 24.5348ZM79.7763 25.3148V17.2288H76.7733V16.2928H83.8713V17.2288H80.8553V25.3148H79.7763ZM84.6306 25.3148V19.0488H85.6706V25.3148H84.6306ZM85.1636 17.5798C84.6956 17.5798 84.4226 17.3068 84.4226 16.8388C84.4226 16.3708 84.6956 16.0978 85.1636 16.0978C85.6316 16.0978 85.9046 16.3708 85.9046 16.8388C85.9046 17.3068 85.6316 17.5798 85.1636 17.5798ZM95.7988 25.3148V21.4148C95.7988 20.4008 95.2528 19.8288 94.2518 19.8288C93.5368 19.8288 92.8608 20.1278 92.3538 20.6608L92.1068 19.9978C92.7568 19.3088 93.6408 18.9188 94.5378 18.9188C95.9288 18.9188 96.8388 19.8158 96.8388 21.2068V25.3148H95.7988ZM87.3748 25.3148V19.0488H88.1028L88.4148 19.7768V25.3148H87.3748ZM91.5868 25.3148V21.4148C91.5868 20.4008 91.0408 19.8288 90.0398 19.8288C89.3248 19.8288 88.6488 20.1278 88.1418 20.6608L87.8948 19.9978C88.5448 19.3088 89.4288 18.9188 90.3388 18.9188C91.7168 18.9188 92.6268 19.8158 92.6268 21.2068V25.3148H91.5868ZM101.255 25.4448C99.2665 25.4448 98.0315 24.2098 98.0315 22.2078C98.0315 20.2838 99.2145 18.9188 100.956 18.9188C102.503 18.9188 103.543 19.9978 103.543 21.5708C103.543 21.8178 103.517 22.2728 103.491 22.4678H98.9155V21.6878H102.568C102.568 20.4918 101.944 19.8028 100.878 19.8028C99.7345 19.8028 99.0975 20.5828 99.0975 21.9998C99.0975 23.6248 99.9685 24.5998 101.437 24.5998C101.983 24.5998 102.594 24.4568 103.075 24.2228L103.309 24.9768C102.75 25.2758 101.97 25.4448 101.255 25.4448ZM104.848 25.3148V19.0488H105.706L105.888 20.5048V25.3148H104.848ZM105.654 21.2458V20.1928C106.122 19.4388 106.902 18.9838 107.747 18.9838C108.033 18.9838 108.306 19.0358 108.579 19.1268L108.319 20.0888C108.111 20.0108 107.877 19.9718 107.63 19.9718C106.772 19.9718 106.018 20.4528 105.654 21.2458Z" fill="#F5F4E7"/>
<path d="M454.036 122V120.075C462.716 111.885 465.551 108.21 465.551 104.675C465.551 101.77 463.626 99.915 460.511 99.915C458.621 99.915 456.311 100.65 454.456 102.155L453.651 100.125C455.436 98.41 458.201 97.36 461.106 97.36C465.586 97.36 468.491 99.95 468.491 104.22C468.491 108.455 465.691 112.515 457.396 120.32L457.011 119.48H469.436V122H454.036ZM480.122 122.175V99.775L481.032 100.65L473.612 104.185L472.562 102.19L481.207 97.71H482.887V122.175H480.122ZM492.997 122.35C491.667 122.35 490.757 121.405 490.757 120.11C490.757 118.815 491.667 117.87 492.997 117.87C494.327 117.87 495.237 118.815 495.237 120.11C495.237 121.405 494.327 122.35 492.997 122.35ZM492.997 109.61C491.667 109.61 490.757 108.665 490.757 107.37C490.757 106.075 491.667 105.13 492.997 105.13C494.327 105.13 495.237 106.075 495.237 107.37C495.237 108.665 494.327 109.61 492.997 109.61ZM500.482 122V120.075C509.162 111.885 511.997 108.21 511.997 104.675C511.997 101.77 510.072 99.915 506.957 99.915C505.067 99.915 502.757 100.65 500.902 102.155L500.097 100.125C501.882 98.41 504.647 97.36 507.552 97.36C512.032 97.36 514.937 99.95 514.937 104.22C514.937 108.455 512.137 112.515 503.842 120.32L503.457 119.48H515.882V122H500.482ZM529.438 122.35C524.083 122.35 520.793 117.695 520.793 110.03C520.793 102.155 524.188 97.36 529.683 97.36C534.968 97.36 538.223 102.05 538.223 109.68C538.223 117.59 534.863 122.35 529.438 122.35ZM529.648 119.865C533.148 119.865 535.283 116.155 535.283 110.03C535.283 103.695 533.043 99.845 529.473 99.845C525.938 99.845 523.733 103.555 523.733 109.68C523.733 116.05 526.008 119.865 529.648 119.865Z" fill="white"/>
<path d="M497.493 50.5133C497.493 51.4116 496.765 52.1397 495.866 52.1397C494.968 52.1397 494.24 51.4116 494.24 50.5133V41.5679C494.24 40.6696 494.968 39.9414 495.866 39.9414C496.765 39.9414 497.493 40.6696 497.493 41.5679V50.5133Z" fill="#FFFF82"/>
<path d="M482.311 52.3823C482.543 53.2499 482.028 54.1418 481.161 54.3743C480.293 54.6068 479.401 54.0919 479.169 53.2242L476.853 44.5836C476.621 43.7159 477.136 42.8241 478.004 42.5916C478.871 42.3591 479.763 42.874 479.996 43.7417L482.311 52.3823Z" fill="#E8E8E8"/>
<path d="M468.129 58.117C468.579 58.8949 468.312 59.8896 467.534 60.3388C466.756 60.7879 465.761 60.5214 465.312 59.7434L460.84 51.9965C460.391 51.2185 460.657 50.2238 461.435 49.7747C462.213 49.3256 463.208 49.5921 463.657 50.37L468.129 58.117Z" fill="#E8E8E8"/>
<path d="M455.915 67.3268C456.551 67.9619 456.551 68.9918 455.915 69.6269C455.28 70.2621 454.251 70.2621 453.615 69.6269L447.29 63.3015C446.655 62.6664 446.655 61.6366 447.29 61.0014C447.925 60.3662 448.955 60.3662 449.59 61.0014L455.915 67.3268Z" fill="#E8E8E8"/>
<path d="M446.501 79.3836C447.279 79.8328 447.546 80.8275 447.097 81.6054C446.648 82.3833 445.653 82.6499 444.875 82.2007L437.128 77.728C436.35 77.2789 436.083 76.2842 436.533 75.5062C436.982 74.7283 437.976 74.4618 438.754 74.9109L446.501 79.3836Z" fill="#E8E8E8"/>
<path d="M440.528 93.4665C441.396 93.699 441.911 94.5909 441.679 95.4585C441.446 96.3262 440.554 96.8411 439.687 96.6086L431.046 94.2933C430.178 94.0608 429.663 93.169 429.896 92.3014C430.128 91.4337 431.02 90.9188 431.888 91.1513L440.528 93.4665Z" fill="#E8E8E8"/>
<path d="M438.405 108.615C439.303 108.615 440.031 109.344 440.031 110.242C440.031 111.14 439.303 111.868 438.405 111.868L429.459 111.868C428.561 111.868 427.833 111.14 427.833 110.242C427.833 109.344 428.561 108.615 429.459 108.615L438.405 108.615Z" fill="#E8E8E8"/>
<path d="M440.273 123.798C441.141 123.566 442.033 124.081 442.265 124.948C442.498 125.816 441.983 126.708 441.115 126.94L432.475 129.255C431.607 129.488 430.715 128.973 430.483 128.105C430.25 127.238 430.765 126.346 431.633 126.113L440.273 123.798Z" fill="#E8E8E8"/>
<path d="M446.008 137.98C446.786 137.53 447.781 137.797 448.23 138.575C448.679 139.353 448.413 140.347 447.635 140.797L439.888 145.269C439.11 145.718 438.115 145.452 437.666 144.674C437.217 143.896 437.484 142.901 438.261 142.452L446.008 137.98Z" fill="#E8E8E8"/>
<path d="M455.218 150.193C455.853 149.558 456.883 149.558 457.518 150.193C458.153 150.828 458.153 151.858 457.518 152.493L451.193 158.819C450.558 159.454 449.528 159.454 448.893 158.819C448.258 158.184 448.258 157.154 448.893 156.519L455.218 150.193Z" fill="#E8E8E8"/>
<path d="M467.275 159.608C467.724 158.83 468.719 158.563 469.497 159.012C470.275 159.461 470.541 160.456 470.092 161.234L465.619 168.981C465.17 169.759 464.176 170.025 463.398 169.576C462.62 169.127 462.353 168.132 462.802 167.355L467.275 159.608Z" fill="#E8E8E8"/>
<path d="M481.358 165.58C481.59 164.712 482.482 164.197 483.35 164.43C484.217 164.662 484.732 165.554 484.5 166.422L482.185 175.063C481.952 175.93 481.06 176.445 480.193 176.213C479.325 175.98 478.81 175.088 479.043 174.221L481.358 165.58Z" fill="#E8E8E8"/>
<path d="M496.507 167.704C496.507 166.806 497.235 166.078 498.133 166.078C499.031 166.078 499.759 166.806 499.759 167.704L499.759 176.65C499.759 177.548 499.031 178.276 498.133 178.276C497.235 178.276 496.507 177.548 496.507 176.65L496.507 167.704Z" fill="#E8E8E8"/>
<path d="M511.689 165.835C511.457 164.968 511.971 164.076 512.839 163.843C513.707 163.611 514.599 164.126 514.831 164.993L517.146 173.634C517.379 174.502 516.864 175.393 515.996 175.626C515.129 175.858 514.237 175.344 514.004 174.476L511.689 165.835Z" fill="#E8E8E8"/>
<path d="M525.87 160.1C525.421 159.322 525.688 158.328 526.466 157.879C527.244 157.429 528.238 157.696 528.687 158.474L533.16 166.221C533.609 166.999 533.343 167.994 532.565 168.443C531.787 168.892 530.792 168.625 530.343 167.847L525.87 160.1Z" fill="#E8E8E8"/>
<path d="M538.084 150.891C537.449 150.256 537.449 149.226 538.084 148.591C538.719 147.956 539.749 147.956 540.384 148.591L546.71 154.916C547.345 155.551 547.345 156.581 546.71 157.216C546.075 157.851 545.045 157.851 544.41 157.216L538.084 150.891Z" fill="#E8E8E8"/>
<path d="M547.498 138.834C546.721 138.385 546.454 137.39 546.903 136.612C547.352 135.834 548.347 135.568 549.125 136.017L556.872 140.489C557.65 140.938 557.916 141.933 557.467 142.711C557.018 143.489 556.023 143.756 555.245 143.306L547.498 138.834Z" fill="#E8E8E8"/>
<path d="M553.471 124.751C552.604 124.518 552.089 123.627 552.321 122.759C552.554 121.891 553.446 121.376 554.313 121.609L562.954 123.924C563.822 124.157 564.336 125.048 564.104 125.916C563.872 126.784 562.98 127.299 562.112 127.066L553.471 124.751Z" fill="#E8E8E8"/>
<path d="M555.595 109.602C554.697 109.602 553.969 108.874 553.969 107.976C553.969 107.077 554.697 106.349 555.595 106.349L564.541 106.349C565.439 106.349 566.167 107.077 566.167 107.976C566.167 108.874 565.439 109.602 564.541 109.602L555.595 109.602Z" fill="#E8E8E8"/>
<path d="M553.727 94.4199C552.859 94.6523 551.967 94.1374 551.735 93.2698C551.502 92.4021 552.017 91.5103 552.885 91.2778L561.525 88.9626C562.393 88.7301 563.285 89.245 563.517 90.1126C563.75 90.9803 563.235 91.8721 562.367 92.1046L553.727 94.4199Z" fill="#E8E8E8"/>
<path d="M547.991 80.2383C547.213 80.6875 546.219 80.4209 545.77 79.643C545.32 78.8651 545.587 77.8704 546.365 77.4212L554.112 72.9485C554.89 72.4994 555.885 72.7659 556.334 73.5438C556.783 74.3218 556.516 75.3165 555.738 75.7656L547.991 80.2383Z" fill="#E8E8E8"/>
<path d="M538.782 68.0245C538.147 68.6597 537.117 68.6597 536.482 68.0245C535.846 67.3893 535.846 66.3595 536.482 65.7244L542.807 59.399C543.442 58.7638 544.472 58.7638 545.107 59.399C545.742 60.0341 545.742 61.064 545.107 61.6991L538.782 68.0245Z" fill="#E8E8E8"/>
<path d="M526.725 58.6105C526.276 59.3884 525.281 59.655 524.503 59.2058C523.725 58.7567 523.459 57.762 523.908 56.9841L528.381 49.2371C528.83 48.4592 529.824 48.1926 530.602 48.6418C531.38 49.0909 531.647 50.0856 531.198 50.8635L526.725 58.6105Z" fill="#FFFF82"/>
<path d="M512.642 52.6378C512.41 53.5054 511.518 54.0203 510.65 53.7878C509.783 53.5554 509.268 52.6635 509.5 51.7959L511.815 43.1552C512.048 42.2876 512.94 41.7727 513.807 42.0052C514.675 42.2377 515.19 43.1295 514.957 43.9971L512.642 52.6378Z" fill="#FFFF82"/>
</svg>
