<svg width="1022" height="61" viewBox="0 0 1022 61" fill="none" xmlns="http://www.w3.org/2000/svg">
<path d="M5 1H1017C1019.21 1 1021 2.79086 1021 5V60H1V5C1 2.85996 2.68056 1.11211 4.79395 1.00488L5 1Z" fill="#171717"/>
<path d="M5 1H1017C1019.21 1 1021 2.79086 1021 5V60H1V5C1 2.85996 2.68056 1.11211 4.79395 1.00488L5 1Z" stroke="#444444" stroke-width="2"/>
<path d="M76.122 38.18C75.024 38.18 73.818 37.928 72.828 37.478L73.17 36.308C74.088 36.704 75.312 36.956 76.23 36.956C77.418 36.956 78.12 36.506 78.12 35.714C78.12 33.59 72.954 34.886 72.954 31.772C72.954 30.134 74.394 29.144 76.644 29.144C77.562 29.144 78.444 29.306 79.182 29.612L78.84 30.782C78.102 30.53 77.238 30.368 76.5 30.368C75.204 30.368 74.394 30.854 74.394 31.61C74.394 33.572 79.578 32.384 79.578 35.57C79.578 37.172 78.264 38.18 76.122 38.18ZM84.1116 38.18C83.0136 38.18 81.8076 37.928 80.8176 37.478L81.1596 36.308C82.0776 36.704 83.3016 36.956 84.2196 36.956C85.4076 36.956 86.1096 36.506 86.1096 35.714C86.1096 33.59 80.9436 34.886 80.9436 31.772C80.9436 30.134 82.3836 29.144 84.6336 29.144C85.5516 29.144 86.4336 29.306 87.1716 29.612L86.8296 30.782C86.0916 30.53 85.2276 30.368 84.4896 30.368C83.1936 30.368 82.3836 30.854 82.3836 31.61C82.3836 33.572 87.5676 32.384 87.5676 35.57C87.5676 37.172 86.2536 38.18 84.1116 38.18ZM95.3952 38V32.6C95.3952 31.196 94.6212 30.404 93.2172 30.404C92.2092 30.404 91.2552 30.818 90.5352 31.664L90.1932 30.746C91.1112 29.684 92.3532 29.144 93.6132 29.144C95.5572 29.144 96.8352 30.386 96.8352 32.312V38H95.3952ZM89.4732 38V24.698H90.9132V38H89.4732Z" fill="#6D6C67"/>
<path d="M27 24.9352C27 22.7618 28.7618 21 30.9352 21H45.111C47.2843 21 49.0461 22.7618 49.0461 24.9352V39.111C49.0461 41.2843 47.2843 43.0461 45.111 43.0461H30.9352C28.7618 43.0461 27 41.2843 27 39.111V24.9352Z" fill="#4D4D4D" fill-opacity="0.5"/>
<path d="M36.6128 35.6858C36.4106 35.888 36.0826 35.8879 35.8804 35.6858L32.5839 32.3893C32.3816 32.187 32.3816 31.8591 32.5839 31.6569L35.8804 28.3604C36.0826 28.1583 36.4106 28.1582 36.6128 28.3604C36.815 28.5626 36.8149 28.8905 36.6128 29.0928L34.2005 31.5051L43.096 31.5051C43.382 31.5051 43.6139 31.737 43.6139 32.0231C43.6139 32.3092 43.382 32.5411 43.096 32.5411L34.2005 32.5411L36.6128 34.9533C36.8149 35.1556 36.815 35.4835 36.6128 35.6858Z" fill="white"/>
<g filter="url(#filter0_di_355_634)">
<rect x="116" y="18" width="47" height="29" rx="5" fill="#808080" fill-opacity="0.08" shape-rendering="crispEdges"/>
<rect x="116.5" y="18.5" width="46" height="28" rx="4.5" stroke="#808080" stroke-opacity="0.2" shape-rendering="crispEdges"/>
</g>
<g filter="url(#filter1_di_355_634)">
<rect x="177" y="18" width="47" height="29" rx="5" fill="#808080" fill-opacity="0.08" shape-rendering="crispEdges"/>
<rect x="177.5" y="18.5" width="46" height="28" rx="4.5" stroke="#808080" stroke-opacity="0.2" shape-rendering="crispEdges"/>
</g>
<path d="M149.337 36.994V29.1623H150.409L150.637 30.9821V36.994H149.337ZM150.344 31.9083V30.5921C150.929 29.6497 151.904 29.0811 152.96 29.0811C153.318 29.0811 153.659 29.146 154 29.2598L153.675 30.4622C153.415 30.3647 153.123 30.3159 152.814 30.3159C151.741 30.3159 150.799 30.9171 150.344 31.9083Z" fill="#CCCCCC" fill-opacity="0.5"/>
<path d="M144.603 37.1566C142.117 37.1566 140.574 35.6131 140.574 33.1108C140.574 30.7061 142.052 29 144.23 29C146.163 29 147.463 30.3486 147.463 32.3147C147.463 32.6234 147.43 33.1921 147.398 33.4358H141.679V32.4609H146.244C146.244 30.966 145.464 30.1049 144.132 30.1049C142.702 30.1049 141.906 31.0798 141.906 32.8508C141.906 34.8819 142.995 36.1005 144.831 36.1005C145.513 36.1005 146.277 35.9218 146.878 35.6293L147.171 36.5717C146.472 36.9454 145.497 37.1566 144.603 37.1566Z" fill="#CCCCCC" fill-opacity="0.5"/>
<path d="M136.238 37.1566C135.246 37.1566 134.158 36.9292 133.264 36.523L133.573 35.4668C134.401 35.8243 135.506 36.0518 136.335 36.0518C137.407 36.0518 138.041 35.6456 138.041 34.9306C138.041 33.0133 133.378 34.1832 133.378 31.3723C133.378 29.8937 134.678 29 136.709 29C137.537 29 138.334 29.1462 139 29.4225L138.691 30.4786C138.025 30.2511 137.245 30.1049 136.579 30.1049C135.409 30.1049 134.678 30.5436 134.678 31.226C134.678 32.9971 139.357 31.9247 139.357 34.8006C139.357 36.2467 138.171 37.1566 136.238 37.1566Z" fill="#CCCCCC" fill-opacity="0.5"/>
<path d="M127.827 37.1565C126.154 37.1565 125 36.0354 125 34.2968V29.1624H126.3V34.0368C126.3 35.3042 126.999 36.0191 128.217 36.0191C129.062 36.0191 129.923 35.6454 130.541 34.9792L130.849 35.8079C130.053 36.6691 128.932 37.1565 127.827 37.1565ZM130.589 36.994L130.199 36.0841V29.1624H131.499V36.994H130.589Z" fill="#CCCCCC" fill-opacity="0.5"/>
<path d="M213.511 38.4508C212.038 38.4508 211.067 37.5471 211.067 36.2083V27.9412H212.406V36.0242C212.406 36.8275 212.958 37.363 213.795 37.363C214.08 37.363 214.448 37.2961 214.699 37.1789L215 38.1496C214.615 38.3169 214.063 38.4508 213.511 38.4508ZM209.979 31.4221V30.3008H214.615V31.4221H209.979Z" fill="#CCCCCC" fill-opacity="0.3"/>
<path d="M205.764 38.5346C204.744 38.5346 203.622 38.3003 202.702 37.8819L203.02 36.7941C203.873 37.1623 205.011 37.3966 205.865 37.3966C206.969 37.3966 207.622 36.9782 207.622 36.2419C207.622 34.2671 202.819 35.472 202.819 32.5769C202.819 31.054 204.158 30.1335 206.25 30.1335C207.103 30.1335 207.923 30.2842 208.609 30.5687L208.291 31.6564C207.605 31.4221 206.802 31.2715 206.116 31.2715C204.911 31.2715 204.158 31.7234 204.158 32.4263C204.158 34.2504 208.978 33.1459 208.978 36.108C208.978 37.5974 207.756 38.5346 205.764 38.5346Z" fill="#CCCCCC" fill-opacity="0.3"/>
<path d="M197.407 38.5346C195.114 38.5346 193.642 36.9113 193.642 34.4177C193.642 31.8405 195.232 30.1335 197.608 30.1335C199.901 30.1335 201.39 31.7401 201.39 34.2336C201.39 36.8108 199.784 38.5346 197.407 38.5346ZM197.591 37.3631C199.081 37.3631 200.051 36.1916 200.051 34.4177C200.051 32.5769 198.98 31.305 197.424 31.305C195.934 31.305 194.981 32.4597 194.981 34.2504C194.981 36.108 196.035 37.3631 197.591 37.3631Z" fill="#CCCCCC" fill-opacity="0.3"/>
<path d="M190.506 38.3672V33.3467C190.506 32.0414 189.786 31.305 188.481 31.305C187.544 31.305 186.657 31.6899 185.987 32.4765L185.669 31.623C186.523 30.6356 187.678 30.1336 188.849 30.1336C190.656 30.1336 191.845 31.2883 191.845 33.0789V38.3672H190.506ZM185 38.3672V26H186.339V38.3672H185Z" fill="#CCCCCC" fill-opacity="0.3"/>
<defs>
<filter id="filter0_di_355_634" x="106" y="8" width="67" height="49" filterUnits="userSpaceOnUse" color-interpolation-filters="sRGB">
<feFlood flood-opacity="0" result="BackgroundImageFix"/>
<feColorMatrix in="SourceAlpha" type="matrix" values="0 0 0 0 0 0 0 0 0 0 0 0 0 0 0 0 0 0 127 0" result="hardAlpha"/>
<feOffset/>
<feGaussianBlur stdDeviation="5"/>
<feComposite in2="hardAlpha" operator="out"/>
<feColorMatrix type="matrix" values="0 0 0 0 0 0 0 0 0 0 0 0 0 0 0 0 0 0 0.3 0"/>
<feBlend mode="normal" in2="BackgroundImageFix" result="effect1_dropShadow_355_634"/>
<feBlend mode="normal" in="SourceGraphic" in2="effect1_dropShadow_355_634" result="shape"/>
<feColorMatrix in="SourceAlpha" type="matrix" values="0 0 0 0 0 0 0 0 0 0 0 0 0 0 0 0 0 0 127 0" result="hardAlpha"/>
<feOffset/>
<feGaussianBlur stdDeviation="5"/>
<feComposite in2="hardAlpha" operator="arithmetic" k2="-1" k3="1"/>
<feColorMatrix type="matrix" values="0 0 0 0 0 0 0 0 0 0 0 0 0 0 0 0 0 0 0.1 0"/>
<feBlend mode="normal" in2="shape" result="effect2_innerShadow_355_634"/>
</filter>
<filter id="filter1_di_355_634" x="167" y="8" width="67" height="49" filterUnits="userSpaceOnUse" color-interpolation-filters="sRGB">
<feFlood flood-opacity="0" result="BackgroundImageFix"/>
<feColorMatrix in="SourceAlpha" type="matrix" values="0 0 0 0 0 0 0 0 0 0 0 0 0 0 0 0 0 0 127 0" result="hardAlpha"/>
<feOffset/>
<feGaussianBlur stdDeviation="5"/>
<feComposite in2="hardAlpha" operator="out"/>
<feColorMatrix type="matrix" values="0 0 0 0 0 0 0 0 0 0 0 0 0 0 0 0 0 0 0.1 0"/>
<feBlend mode="normal" in2="BackgroundImageFix" result="effect1_dropShadow_355_634"/>
<feBlend mode="normal" in="SourceGraphic" in2="effect1_dropShadow_355_634" result="shape"/>
<feColorMatrix in="SourceAlpha" type="matrix" values="0 0 0 0 0 0 0 0 0 0 0 0 0 0 0 0 0 0 127 0" result="hardAlpha"/>
<feMorphology radius="1" operator="erode" in="SourceAlpha" result="effect2_innerShadow_355_634"/>
<feOffset/>
<feGaussianBlur stdDeviation="5"/>
<feComposite in2="hardAlpha" operator="arithmetic" k2="-1" k3="1"/>
<feColorMatrix type="matrix" values="0 0 0 0 0 0 0 0 0 0 0 0 0 0 0 0 0 0 0.3 0"/>
<feBlend mode="normal" in2="shape" result="effect2_innerShadow_355_634"/>
</filter>
</defs>
</svg>
