<svg width="128" height="128" viewBox="0 0 128 128" fill="none" xmlns="http://www.w3.org/2000/svg">
<g clip-path="url(#clip0_327_613)">
<circle cx="98.0083" cy="81.3273" r="4.90909" fill="url(#paint0_linear_327_613)"/>
<circle cx="90.8083" cy="68.7272" r="4.90909" fill="url(#paint1_linear_327_613)"/>
<circle cx="31.4083" cy="90.3273" r="4.90909" fill="url(#paint2_linear_327_613)"/>
<circle cx="47.6083" cy="84.9272" r="4.90909" fill="url(#paint3_linear_327_613)"/>
<circle cx="74.6083" cy="66.9272" r="4.90909" fill="url(#paint4_linear_327_613)"/>
<circle cx="62.0083" cy="75.9272" r="4.90909" fill="url(#paint5_linear_327_613)"/>
<circle cx="36.8083" cy="72.3273" r="4.90909" fill="url(#paint6_linear_327_613)"/>
<circle cx="63.8083" cy="93.9272" r="4.90909" fill="url(#paint7_linear_327_613)"/>
<circle cx="81.8083" cy="86.7272" r="4.90909" fill="url(#paint8_linear_327_613)"/>
<g filter="url(#filter0_d_327_613)">
<path d="M64.7528 29.6182C72.465 29.6182 79.51 32.4722 84.8913 37.1808C86.3181 38.4292 88.218 39.0232 90.102 38.8112C91.2347 38.6838 92.386 38.6182 93.5528 38.6182C110.453 38.6182 124.153 52.3183 124.153 69.2182V69.2182C124.153 70.2293 123.308 71.0182 122.297 71.0182H10.4078C6.77549 71.0182 4.19939 67.4742 6.06122 64.3553C11.4015 55.4095 21.177 49.4182 32.3528 49.4182V49.4182C34.5138 49.4182 36.5243 48.187 37.5111 46.2644C42.5842 36.3806 52.8791 29.6182 64.7528 29.6182Z" fill="#FAFAFA"/>
</g>
<path d="M88.6001 31.7327C88.6001 31.7327 94.3382 27.1831 95.0957 24.1447C95.8533 21.1063 92.9227 14.3955 92.9227 14.3955C92.9227 14.3955 97.4723 20.1335 100.511 20.8911C103.549 21.6487 110.26 18.7181 110.26 18.7181C110.26 18.7181 104.522 23.2677 103.764 26.3061C103.007 29.3445 105.937 36.0553 105.937 36.0553C105.937 36.0553 101.388 30.3172 98.3494 29.5597C95.311 28.8021 88.6001 31.7327 88.6001 31.7327Z" fill="#F0F3F4"/>
<path d="M67 13.7327C67 13.7327 69.8902 11.4411 70.2718 9.91066C70.6534 8.38023 69.1773 5 69.1773 5C69.1773 5 71.4689 7.89024 72.9993 8.27182C74.5297 8.6534 77.91 7.1773 77.91 7.1773C77.91 7.1773 75.0197 9.46888 74.6381 10.9993C74.2566 12.5297 75.7327 15.91 75.7327 15.91C75.7327 15.91 73.4411 13.0197 71.9107 12.6381C70.3802 12.2566 67 13.7327 67 13.7327Z" fill="#F0F3F4"/>
<path d="M117.4 14.1274C117.4 14.1274 118.556 13.2108 118.709 12.5986C118.861 11.9865 118.271 10.6344 118.271 10.6344C118.271 10.6344 119.188 11.7905 119.8 11.9431C120.412 12.0957 121.764 11.5053 121.764 11.5053C121.764 11.5053 120.608 12.4219 120.455 13.0341C120.303 13.6463 120.893 14.9984 120.893 14.9984C120.893 14.9984 119.976 13.8423 119.364 13.6896C118.752 13.537 117.4 14.1274 117.4 14.1274Z" fill="#F0F3F4"/>
</g>
<defs>
<filter id="filter0_d_327_613" x="-4.10076" y="24.2182" width="135.454" height="55.7999" filterUnits="userSpaceOnUse" color-interpolation-filters="sRGB">
<feFlood flood-opacity="0" result="BackgroundImageFix"/>
<feColorMatrix in="SourceAlpha" type="matrix" values="0 0 0 0 0 0 0 0 0 0 0 0 0 0 0 0 0 0 127 0" result="hardAlpha"/>
<feOffset dy="1.8"/>
<feGaussianBlur stdDeviation="3.6"/>
<feComposite in2="hardAlpha" operator="out"/>
<feColorMatrix type="matrix" values="0 0 0 0 0 0 0 0 0 0 0 0 0 0 0 0 0 0 0.25 0"/>
<feBlend mode="normal" in2="BackgroundImageFix" result="effect1_dropShadow_327_613"/>
<feBlend mode="normal" in="SourceGraphic" in2="effect1_dropShadow_327_613" result="shape"/>
</filter>
<linearGradient id="paint0_linear_327_613" x1="98.0083" y1="76.4182" x2="98.0083" y2="86.2364" gradientUnits="userSpaceOnUse">
<stop stop-color="#DADFE3"/>
<stop offset="1" stop-color="#BBCACE"/>
</linearGradient>
<linearGradient id="paint1_linear_327_613" x1="90.8083" y1="63.8181" x2="90.8083" y2="73.6363" gradientUnits="userSpaceOnUse">
<stop stop-color="#DADFE3"/>
<stop offset="1" stop-color="#BBCACE"/>
</linearGradient>
<linearGradient id="paint2_linear_327_613" x1="31.4083" y1="85.4182" x2="31.4083" y2="95.2364" gradientUnits="userSpaceOnUse">
<stop stop-color="#DADFE3"/>
<stop offset="1" stop-color="#BBCACE"/>
</linearGradient>
<linearGradient id="paint3_linear_327_613" x1="47.6083" y1="80.0181" x2="47.6083" y2="89.8362" gradientUnits="userSpaceOnUse">
<stop stop-color="#DADFE3"/>
<stop offset="1" stop-color="#BBCACE"/>
</linearGradient>
<linearGradient id="paint4_linear_327_613" x1="74.6083" y1="62.0181" x2="74.6083" y2="71.8362" gradientUnits="userSpaceOnUse">
<stop stop-color="#DADFE3"/>
<stop offset="1" stop-color="#BBCACE"/>
</linearGradient>
<linearGradient id="paint5_linear_327_613" x1="62.0083" y1="71.0181" x2="62.0083" y2="80.8362" gradientUnits="userSpaceOnUse">
<stop stop-color="#DADFE3"/>
<stop offset="1" stop-color="#BBCACE"/>
</linearGradient>
<linearGradient id="paint6_linear_327_613" x1="36.8083" y1="67.4182" x2="36.8083" y2="77.2364" gradientUnits="userSpaceOnUse">
<stop stop-color="#DADFE3"/>
<stop offset="1" stop-color="#BBCACE"/>
</linearGradient>
<linearGradient id="paint7_linear_327_613" x1="63.8083" y1="89.0181" x2="63.8083" y2="98.8362" gradientUnits="userSpaceOnUse">
<stop stop-color="#DADFE3"/>
<stop offset="1" stop-color="#BBCACE"/>
</linearGradient>
<linearGradient id="paint8_linear_327_613" x1="81.8083" y1="81.8181" x2="81.8083" y2="91.6363" gradientUnits="userSpaceOnUse">
<stop stop-color="#DADFE3"/>
<stop offset="1" stop-color="#BBCACE"/>
</linearGradient>
<clipPath id="clip0_327_613">
<rect width="128" height="128" fill="white"/>
</clipPath>
</defs>
</svg>
