<svg width="128" height="128" viewBox="0 0 128 128" fill="none" xmlns="http://www.w3.org/2000/svg">
<g clip-path="url(#clip0_324_1724)">
<rect x="27.9507" y="84.0363" width="6.04" height="12.08" rx="3.02" fill="url(#paint0_linear_324_1724)"/>
<rect x="38.5208" y="93.0962" width="6.04" height="12.08" rx="3.02" fill="url(#paint1_linear_324_1724)"/>
<g filter="url(#filter0_d_324_1724)">
<path d="M64.8075 33.0737C72.8947 33.0737 80.282 36.0665 85.925 41.004C87.4212 42.3131 89.4134 42.936 91.389 42.7137C92.5767 42.5801 93.7841 42.5112 95.0075 42.5112C112.729 42.5112 127.095 56.8773 127.095 74.5987V74.5987C127.095 75.659 126.21 76.4862 125.149 76.4862H7.82077C4.01188 76.4862 1.31054 72.77 3.26288 69.4995C8.86277 60.1189 19.1135 53.8362 30.8325 53.8362V53.8362C33.0986 53.8362 35.2068 52.5452 36.2415 50.5292C41.5613 40.1649 52.3566 33.0737 64.8075 33.0737Z" fill="#FAFAFA"/>
</g>
</g>
<defs>
<filter id="filter0_d_324_1724" x="-7.39308" y="27.4112" width="142.038" height="58.5125" filterUnits="userSpaceOnUse" color-interpolation-filters="sRGB">
<feFlood flood-opacity="0" result="BackgroundImageFix"/>
<feColorMatrix in="SourceAlpha" type="matrix" values="0 0 0 0 0 0 0 0 0 0 0 0 0 0 0 0 0 0 127 0" result="hardAlpha"/>
<feOffset dy="1.8875"/>
<feGaussianBlur stdDeviation="3.775"/>
<feComposite in2="hardAlpha" operator="out"/>
<feColorMatrix type="matrix" values="0 0 0 0 0 0 0 0 0 0 0 0 0 0 0 0 0 0 0.25 0"/>
<feBlend mode="normal" in2="BackgroundImageFix" result="effect1_dropShadow_324_1724"/>
<feBlend mode="normal" in="SourceGraphic" in2="effect1_dropShadow_324_1724" result="shape"/>
</filter>
<linearGradient id="paint0_linear_324_1724" x1="30.9707" y1="84.0363" x2="30.9707" y2="96.1163" gradientUnits="userSpaceOnUse">
<stop stop-color="#52C0FF" stop-opacity="0.5"/>
<stop offset="1" stop-color="#ADE1FF"/>
</linearGradient>
<linearGradient id="paint1_linear_324_1724" x1="41.5408" y1="93.0962" x2="41.5408" y2="105.176" gradientUnits="userSpaceOnUse">
<stop stop-color="#52C0FF" stop-opacity="0.5"/>
<stop offset="1" stop-color="#ADE1FF"/>
</linearGradient>
<clipPath id="clip0_324_1724">
<rect width="128" height="128" fill="white"/>
</clipPath>
</defs>
</svg>
