<svg width="128" height="128" viewBox="0 0 128 128" fill="none" xmlns="http://www.w3.org/2000/svg">
<g clip-path="url(#clip0_227_561)">
<circle cx="63.75" cy="63.75" r="57.75" fill="url(#paint0_linear_227_561)"/>
<g filter="url(#filter0_d_227_561)">
<path d="M49.0649 69.75C55.4919 69.75 61.3626 72.1284 65.8471 76.0522C67.0361 77.0926 68.6193 77.5876 70.1893 77.4109C71.1332 77.3047 72.0927 77.25 73.0649 77.25C87.1482 77.25 98.5649 88.6667 98.5649 102.75V102.75C98.5649 103.593 97.8613 104.25 97.0186 104.25H3.77748C0.750553 104.25 -1.3962 101.297 0.155326 98.6977C4.60556 91.2428 12.7518 86.25 22.0649 86.25V86.25C23.8658 86.25 25.5412 85.224 26.3635 83.6219C30.5911 75.3854 39.1702 69.75 49.0649 69.75Z" fill="#FAFAFA"/>
</g>
<g filter="url(#filter1_d_227_561)">
<path d="M76.0649 78.75C82.4919 78.75 88.3626 81.1284 92.8471 85.0522C94.0361 86.0926 95.6193 86.5876 97.1893 86.4109C98.1332 86.3047 99.0927 86.25 100.065 86.25C114.148 86.25 125.565 97.6667 125.565 111.75V111.75C125.565 112.593 124.861 113.25 124.019 113.25H30.7775C27.7506 113.25 25.6038 110.297 27.1553 107.698C31.6056 100.243 39.7518 95.25 49.0649 95.25V95.25C50.8658 95.25 52.5412 94.224 53.3635 92.6219C57.5911 84.3854 66.1702 78.75 76.0649 78.75Z" fill="#FAFAFA"/>
</g>
</g>
<defs>
<filter id="filter0_d_227_561" x="-8.31299" y="65.25" width="112.878" height="46.5" filterUnits="userSpaceOnUse" color-interpolation-filters="sRGB">
<feFlood flood-opacity="0" result="BackgroundImageFix"/>
<feColorMatrix in="SourceAlpha" type="matrix" values="0 0 0 0 0 0 0 0 0 0 0 0 0 0 0 0 0 0 127 0" result="hardAlpha"/>
<feOffset dy="1.5"/>
<feGaussianBlur stdDeviation="3"/>
<feComposite in2="hardAlpha" operator="out"/>
<feColorMatrix type="matrix" values="0 0 0 0 0 0 0 0 0 0 0 0 0 0 0 0 0 0 0.25 0"/>
<feBlend mode="normal" in2="BackgroundImageFix" result="effect1_dropShadow_227_561"/>
<feBlend mode="normal" in="SourceGraphic" in2="effect1_dropShadow_227_561" result="shape"/>
</filter>
<filter id="filter1_d_227_561" x="18.687" y="74.25" width="112.878" height="46.5" filterUnits="userSpaceOnUse" color-interpolation-filters="sRGB">
<feFlood flood-opacity="0" result="BackgroundImageFix"/>
<feColorMatrix in="SourceAlpha" type="matrix" values="0 0 0 0 0 0 0 0 0 0 0 0 0 0 0 0 0 0 127 0" result="hardAlpha"/>
<feOffset dy="1.5"/>
<feGaussianBlur stdDeviation="3"/>
<feComposite in2="hardAlpha" operator="out"/>
<feColorMatrix type="matrix" values="0 0 0 0 0 0 0 0 0 0 0 0 0 0 0 0 0 0 0.25 0"/>
<feBlend mode="normal" in2="BackgroundImageFix" result="effect1_dropShadow_227_561"/>
<feBlend mode="normal" in="SourceGraphic" in2="effect1_dropShadow_227_561" result="shape"/>
</filter>
<linearGradient id="paint0_linear_227_561" x1="63.75" y1="6" x2="21" y2="64.5" gradientUnits="userSpaceOnUse">
<stop stop-color="#FFF952" stop-opacity="0.8"/>
<stop offset="1" stop-color="#FFE204"/>
</linearGradient>
<clipPath id="clip0_227_561">
<rect width="128" height="128" fill="white"/>
</clipPath>
</defs>
</svg>
