<svg width="128" height="128" viewBox="0 0 128 128" fill="none" xmlns="http://www.w3.org/2000/svg">
<g clip-path="url(#clip0_324_2111)">
<g filter="url(#filter0_d_324_2111)">
<path d="M65.1914 29.6492C73.3463 29.6492 80.7954 32.667 86.4856 37.6458C87.9943 38.9659 90.0032 39.5939 91.9953 39.3698C93.1929 39.235 94.4104 39.1656 95.6441 39.1656C113.514 39.1656 128 53.6519 128 71.5216V71.5216C128 72.5907 127.107 73.4249 126.038 73.4249H7.72796C3.88721 73.4249 1.16327 69.6775 3.13195 66.3797C8.77867 56.9206 19.1151 50.5854 30.9322 50.5854V50.5854C33.2172 50.5854 35.3431 49.2835 36.3865 47.2506C41.7507 36.7997 52.6364 29.6492 65.1914 29.6492Z" fill="#FAFAFA"/>
</g>
<circle cx="90.8389" cy="80.5189" r="5.19079" fill="#8AE4FE"/>
<circle cx="66.0961" cy="65.2926" r="5.19079" fill="#8AE4FE"/>
<circle cx="54.6763" cy="93.8419" r="5.19079" fill="#8AE4FE"/>
</g>
<defs>
<filter id="filter0_d_324_2111" x="-7.61316" y="23.9393" width="143.226" height="59.002" filterUnits="userSpaceOnUse" color-interpolation-filters="sRGB">
<feFlood flood-opacity="0" result="BackgroundImageFix"/>
<feColorMatrix in="SourceAlpha" type="matrix" values="0 0 0 0 0 0 0 0 0 0 0 0 0 0 0 0 0 0 127 0" result="hardAlpha"/>
<feOffset dy="1.90329"/>
<feGaussianBlur stdDeviation="3.80658"/>
<feComposite in2="hardAlpha" operator="out"/>
<feColorMatrix type="matrix" values="0 0 0 0 0 0 0 0 0 0 0 0 0 0 0 0 0 0 0.25 0"/>
<feBlend mode="normal" in2="BackgroundImageFix" result="effect1_dropShadow_324_2111"/>
<feBlend mode="normal" in="SourceGraphic" in2="effect1_dropShadow_324_2111" result="shape"/>
</filter>
<clipPath id="clip0_324_2111">
<rect width="128" height="128" fill="white"/>
</clipPath>
</defs>
</svg>
