<svg width="128" height="128" viewBox="0 0 128 128" fill="none" xmlns="http://www.w3.org/2000/svg">
<g clip-path="url(#clip0_322_1320)">
<g filter="url(#filter0_d_322_1320)">
<path d="M64.7528 32C72.465 32 79.51 34.8541 84.8913 39.5626C86.3181 40.8111 88.218 41.4051 90.102 41.1931C91.2347 41.0656 92.386 41 93.5528 41C110.453 41 124.153 54.7001 124.153 71.6V71.6C124.153 72.6111 123.308 73.4 122.297 73.4H10.4078C6.77549 73.4 4.19939 69.856 6.06122 66.7372C11.4015 57.7914 21.177 51.8 32.3528 51.8V51.8C34.5138 51.8 36.5243 50.5688 37.5111 48.6462C42.5842 38.7625 52.8791 32 64.7528 32Z" fill="#D9D9D9"/>
</g>
<rect x="75.0992" y="77" width="48.6" height="7.2" rx="3.6" fill="url(#paint0_linear_322_1320)"/>
<rect x="44.4993" y="87.8" width="72" height="7.2" rx="3.6" fill="url(#paint1_linear_322_1320)"/>
<rect x="6.69922" y="77" width="63" height="7.2" rx="3.6" fill="url(#paint2_linear_322_1320)"/>
<rect x="12.0992" y="87.8" width="25.2" height="7.2" rx="3.6" fill="url(#paint3_linear_322_1320)"/>
</g>
<defs>
<filter id="filter0_d_322_1320" x="-4.10076" y="26.6" width="135.454" height="55.7999" filterUnits="userSpaceOnUse" color-interpolation-filters="sRGB">
<feFlood flood-opacity="0" result="BackgroundImageFix"/>
<feColorMatrix in="SourceAlpha" type="matrix" values="0 0 0 0 0 0 0 0 0 0 0 0 0 0 0 0 0 0 127 0" result="hardAlpha"/>
<feOffset dy="1.8"/>
<feGaussianBlur stdDeviation="3.6"/>
<feComposite in2="hardAlpha" operator="out"/>
<feColorMatrix type="matrix" values="0 0 0 0 0 0 0 0 0 0 0 0 0 0 0 0 0 0 0.25 0"/>
<feBlend mode="normal" in2="BackgroundImageFix" result="effect1_dropShadow_322_1320"/>
<feBlend mode="normal" in="SourceGraphic" in2="effect1_dropShadow_322_1320" result="shape"/>
</filter>
<linearGradient id="paint0_linear_322_1320" x1="123.699" y1="80.6" x2="75.0992" y2="80.6" gradientUnits="userSpaceOnUse">
<stop stop-color="#D9D9D9"/>
<stop offset="1" stop-color="#737373" stop-opacity="0"/>
</linearGradient>
<linearGradient id="paint1_linear_322_1320" x1="116.499" y1="91.4" x2="44.4993" y2="91.4" gradientUnits="userSpaceOnUse">
<stop stop-color="#D9D9D9"/>
<stop offset="1" stop-color="#737373" stop-opacity="0"/>
</linearGradient>
<linearGradient id="paint2_linear_322_1320" x1="69.6992" y1="80.6" x2="6.69922" y2="80.6" gradientUnits="userSpaceOnUse">
<stop stop-color="#D9D9D9"/>
<stop offset="1" stop-color="#737373" stop-opacity="0"/>
</linearGradient>
<linearGradient id="paint3_linear_322_1320" x1="37.2992" y1="91.4" x2="12.0992" y2="91.4" gradientUnits="userSpaceOnUse">
<stop stop-color="#D9D9D9"/>
<stop offset="1" stop-color="#737373" stop-opacity="0"/>
</linearGradient>
<clipPath id="clip0_322_1320">
<rect width="128" height="128" fill="white"/>
</clipPath>
</defs>
</svg>
