<svg width="128" height="128" viewBox="0 0 128 128" fill="none" xmlns="http://www.w3.org/2000/svg">
<g clip-path="url(#clip0_324_1664)">
<path d="M62.5371 6.5C67.6339 6.5 72.5759 7.1656 77.2816 8.41416C60.8803 13.6542 48.999 29.0663 48.999 47.2647C48.999 69.7784 67.1827 88.0294 89.6134 88.0294C101.177 88.0294 111.603 83.171 119 75.3866C113.829 101.952 90.518 122 62.5371 122C30.7602 122 5 96.1444 5 64.25C5 32.3556 30.7602 6.5 62.5371 6.5Z" fill="#F0F3F4"/>
<path d="M74 46.7771C74 46.7771 78.7817 42.9858 79.413 40.4538C80.0443 37.9218 77.6022 32.3294 77.6022 32.3294C77.6022 32.3294 81.3935 37.1112 83.9255 37.7425C86.4575 38.3738 92.0499 35.9316 92.0499 35.9316C92.0499 35.9316 87.2681 39.7229 86.6369 42.2549C86.0056 44.7869 88.4477 50.3793 88.4477 50.3793C88.4477 50.3793 84.6564 45.5976 82.1244 44.9663C79.5924 44.335 74 46.7771 74 46.7771Z" fill="#F0F3F4"/>
<path d="M89 13.7771C89 13.7771 91.4085 11.8674 91.7265 10.5921C92.0445 9.31674 90.8144 6.49988 90.8144 6.49988C90.8144 6.49988 92.7241 8.90841 93.9994 9.22639C95.2748 9.54438 98.0916 8.3143 98.0916 8.3143C98.0916 8.3143 95.6831 10.2239 95.3651 11.4993C95.0471 12.7747 96.2772 15.5915 96.2772 15.5915C96.2772 15.5915 94.3676 13.183 93.0922 12.865C91.8169 12.547 89 13.7771 89 13.7771Z" fill="#F0F3F4"/>
<path d="M98 32.1066C98 32.1066 98.9634 31.3427 99.0906 30.8326C99.2178 30.3224 98.7258 29.1957 98.7258 29.1957C98.7258 29.1957 99.4896 30.1591 99.9998 30.2863C100.51 30.4135 101.637 29.9214 101.637 29.9214C101.637 29.9214 100.673 30.6853 100.546 31.1954C100.419 31.7056 100.911 32.8323 100.911 32.8323C100.911 32.8323 100.147 31.8689 99.6369 31.7417C99.1267 31.6145 98 32.1066 98 32.1066Z" fill="#F0F3F4"/>
</g>
<defs>
<clipPath id="clip0_324_1664">
<rect width="128" height="128" fill="white"/>
</clipPath>
</defs>
</svg>
