<svg width="128" height="128" viewBox="0 0 128 128" fill="none" xmlns="http://www.w3.org/2000/svg">
<g clip-path="url(#clip0_324_1686)">
<path d="M64.5371 5.75C69.6339 5.75 74.5759 6.4156 79.2816 7.66416C62.8803 12.9042 50.999 28.3163 50.999 46.5147C50.999 69.0284 69.1827 87.2794 91.6134 87.2794C103.177 87.2794 113.603 82.421 121 74.6366C115.829 101.202 92.518 121.25 64.5371 121.25C32.7602 121.25 7 95.3944 7 63.5C7 31.6056 32.7602 5.75 64.5371 5.75Z" fill="#F0F3F4"/>
<path d="M76 46.0272C76 46.0272 80.7817 42.2359 81.413 39.7039C82.0443 37.1719 79.6022 31.5796 79.6022 31.5796C79.6022 31.5796 83.3935 36.3613 85.9255 36.9926C88.4575 37.6239 94.0499 35.1818 94.0499 35.1818C94.0499 35.1818 89.2681 38.973 88.6369 41.505C88.0056 44.037 90.4477 49.6294 90.4477 49.6294C90.4477 49.6294 86.6564 44.8477 84.1244 44.2164C81.5924 43.5851 76 46.0272 76 46.0272Z" fill="#F0F3F4"/>
<path d="M91 13.0272C91 13.0272 93.4085 11.1176 93.7265 9.84222C94.0445 8.56686 92.8144 5.75 92.8144 5.75C92.8144 5.75 94.7241 8.15853 95.9994 8.47652C97.2748 8.7945 100.092 7.56442 100.092 7.56442C100.092 7.56442 97.6831 9.47407 97.3651 10.7494C97.0471 12.0248 98.2772 14.8416 98.2772 14.8416C98.2772 14.8416 96.3676 12.4331 95.0922 12.1151C93.8169 11.7971 91 13.0272 91 13.0272Z" fill="#F0F3F4"/>
<path d="M100 31.3566C100 31.3566 100.963 30.5927 101.091 30.0826C101.218 29.5724 100.726 28.4457 100.726 28.4457C100.726 28.4457 101.49 29.4091 102 29.5363C102.51 29.6635 103.637 29.1714 103.637 29.1714C103.637 29.1714 102.673 29.9353 102.546 30.4454C102.419 30.9556 102.911 32.0823 102.911 32.0823C102.911 32.0823 102.147 31.1189 101.637 30.9917C101.127 30.8645 100 31.3566 100 31.3566Z" fill="#F0F3F4"/>
<g filter="url(#filter0_d_324_1686)">
<path d="M71.3779 87C77.8048 87 83.6756 89.3784 88.1601 93.3022C89.3491 94.3426 90.9323 94.8376 92.5023 94.6609C93.4462 94.5547 94.4057 94.5 95.3779 94.5C109.461 94.5 120.878 105.917 120.878 120V120C120.878 120.843 120.174 121.5 119.332 121.5H26.0905C23.0635 121.5 20.9168 118.547 22.4683 115.948C26.9186 108.493 35.0648 103.5 44.3779 103.5V103.5C46.1788 103.5 47.8542 102.474 48.6765 100.872C52.9041 92.6354 61.4832 87 71.3779 87Z" fill="#FAFAFA"/>
</g>
</g>
<defs>
<filter id="filter0_d_324_1686" x="14" y="82.5" width="112.878" height="46.5" filterUnits="userSpaceOnUse" color-interpolation-filters="sRGB">
<feFlood flood-opacity="0" result="BackgroundImageFix"/>
<feColorMatrix in="SourceAlpha" type="matrix" values="0 0 0 0 0 0 0 0 0 0 0 0 0 0 0 0 0 0 127 0" result="hardAlpha"/>
<feOffset dy="1.5"/>
<feGaussianBlur stdDeviation="3"/>
<feComposite in2="hardAlpha" operator="out"/>
<feColorMatrix type="matrix" values="0 0 0 0 0 0 0 0 0 0 0 0 0 0 0 0 0 0 0.25 0"/>
<feBlend mode="normal" in2="BackgroundImageFix" result="effect1_dropShadow_324_1686"/>
<feBlend mode="normal" in="SourceGraphic" in2="effect1_dropShadow_324_1686" result="shape"/>
</filter>
<clipPath id="clip0_324_1686">
<rect width="128" height="128" fill="white"/>
</clipPath>
</defs>
</svg>
