<svg width="128" height="128" viewBox="0 0 128 128" fill="none" xmlns="http://www.w3.org/2000/svg">
<g clip-path="url(#clip0_322_1335)">
<circle cx="98.0083" cy="81.3273" r="4.90909" fill="url(#paint0_linear_322_1335)"/>
<circle cx="90.8083" cy="68.7272" r="4.90909" fill="url(#paint1_linear_322_1335)"/>
<circle cx="31.4083" cy="90.3273" r="4.90909" fill="url(#paint2_linear_322_1335)"/>
<circle cx="47.6083" cy="84.9272" r="4.90909" fill="url(#paint3_linear_322_1335)"/>
<circle cx="74.6083" cy="66.9272" r="4.90909" fill="url(#paint4_linear_322_1335)"/>
<circle cx="62.0083" cy="75.9272" r="4.90909" fill="url(#paint5_linear_322_1335)"/>
<circle cx="36.8083" cy="72.3273" r="4.90909" fill="url(#paint6_linear_322_1335)"/>
<circle cx="63.8083" cy="93.9272" r="4.90909" fill="url(#paint7_linear_322_1335)"/>
<circle cx="81.8083" cy="86.7272" r="4.90909" fill="url(#paint8_linear_322_1335)"/>
<g filter="url(#filter0_d_322_1335)">
<path d="M64.7528 29.6182C72.465 29.6182 79.51 32.4722 84.8913 37.1808C86.3181 38.4292 88.218 39.0232 90.102 38.8112C91.2347 38.6838 92.386 38.6182 93.5528 38.6182C110.453 38.6182 124.153 52.3183 124.153 69.2182V69.2182C124.153 70.2293 123.308 71.0182 122.297 71.0182H10.4078C6.77549 71.0182 4.19939 67.4742 6.06122 64.3553C11.4015 55.4095 21.177 49.4182 32.3528 49.4182V49.4182C34.5138 49.4182 36.5243 48.187 37.5111 46.2644C42.5842 36.3806 52.8791 29.6182 64.7528 29.6182Z" fill="#FAFAFA"/>
</g>
</g>
<defs>
<filter id="filter0_d_322_1335" x="-4.10076" y="24.2182" width="135.454" height="55.7999" filterUnits="userSpaceOnUse" color-interpolation-filters="sRGB">
<feFlood flood-opacity="0" result="BackgroundImageFix"/>
<feColorMatrix in="SourceAlpha" type="matrix" values="0 0 0 0 0 0 0 0 0 0 0 0 0 0 0 0 0 0 127 0" result="hardAlpha"/>
<feOffset dy="1.8"/>
<feGaussianBlur stdDeviation="3.6"/>
<feComposite in2="hardAlpha" operator="out"/>
<feColorMatrix type="matrix" values="0 0 0 0 0 0 0 0 0 0 0 0 0 0 0 0 0 0 0.25 0"/>
<feBlend mode="normal" in2="BackgroundImageFix" result="effect1_dropShadow_322_1335"/>
<feBlend mode="normal" in="SourceGraphic" in2="effect1_dropShadow_322_1335" result="shape"/>
</filter>
<linearGradient id="paint0_linear_322_1335" x1="98.0083" y1="76.4182" x2="98.0083" y2="86.2364" gradientUnits="userSpaceOnUse">
<stop stop-color="#DADFE3"/>
<stop offset="1" stop-color="#BBCACE"/>
</linearGradient>
<linearGradient id="paint1_linear_322_1335" x1="90.8083" y1="63.8181" x2="90.8083" y2="73.6363" gradientUnits="userSpaceOnUse">
<stop stop-color="#DADFE3"/>
<stop offset="1" stop-color="#BBCACE"/>
</linearGradient>
<linearGradient id="paint2_linear_322_1335" x1="31.4083" y1="85.4182" x2="31.4083" y2="95.2364" gradientUnits="userSpaceOnUse">
<stop stop-color="#DADFE3"/>
<stop offset="1" stop-color="#BBCACE"/>
</linearGradient>
<linearGradient id="paint3_linear_322_1335" x1="47.6083" y1="80.0181" x2="47.6083" y2="89.8362" gradientUnits="userSpaceOnUse">
<stop stop-color="#DADFE3"/>
<stop offset="1" stop-color="#BBCACE"/>
</linearGradient>
<linearGradient id="paint4_linear_322_1335" x1="74.6083" y1="62.0181" x2="74.6083" y2="71.8362" gradientUnits="userSpaceOnUse">
<stop stop-color="#DADFE3"/>
<stop offset="1" stop-color="#BBCACE"/>
</linearGradient>
<linearGradient id="paint5_linear_322_1335" x1="62.0083" y1="71.0181" x2="62.0083" y2="80.8362" gradientUnits="userSpaceOnUse">
<stop stop-color="#DADFE3"/>
<stop offset="1" stop-color="#BBCACE"/>
</linearGradient>
<linearGradient id="paint6_linear_322_1335" x1="36.8083" y1="67.4182" x2="36.8083" y2="77.2364" gradientUnits="userSpaceOnUse">
<stop stop-color="#DADFE3"/>
<stop offset="1" stop-color="#BBCACE"/>
</linearGradient>
<linearGradient id="paint7_linear_322_1335" x1="63.8083" y1="89.0181" x2="63.8083" y2="98.8362" gradientUnits="userSpaceOnUse">
<stop stop-color="#DADFE3"/>
<stop offset="1" stop-color="#BBCACE"/>
</linearGradient>
<linearGradient id="paint8_linear_322_1335" x1="81.8083" y1="81.8181" x2="81.8083" y2="91.6363" gradientUnits="userSpaceOnUse">
<stop stop-color="#DADFE3"/>
<stop offset="1" stop-color="#BBCACE"/>
</linearGradient>
<clipPath id="clip0_322_1335">
<rect width="128" height="128" fill="white"/>
</clipPath>
</defs>
</svg>
