<svg width="128" height="128" viewBox="0 0 128 128" fill="none" xmlns="http://www.w3.org/2000/svg">
<g clip-path="url(#clip0_323_1608)">
<path d="M63.7871 5C68.8839 5 73.8259 5.6656 78.5316 6.91416C62.1303 12.1542 50.249 27.5663 50.249 45.7647C50.249 68.2784 68.4327 86.5294 90.8634 86.5294C102.427 86.5294 112.853 81.671 120.25 73.8866C115.079 100.452 91.768 120.5 63.7871 120.5C32.0102 120.5 6.25 94.6444 6.25 62.75C6.25 30.8556 32.0102 5 63.7871 5Z" fill="#F0F3F4"/>
<path d="M75.25 45.2771C75.25 45.2771 80.0317 41.4858 80.663 38.9538C81.2943 36.4218 78.8522 30.8294 78.8522 30.8294C78.8522 30.8294 82.6435 35.6112 85.1755 36.2425C87.7075 36.8738 93.2999 34.4316 93.2999 34.4316C93.2999 34.4316 88.5181 38.2229 87.8869 40.7549C87.2556 43.2869 89.6977 48.8793 89.6977 48.8793C89.6977 48.8793 85.9064 44.0976 83.3744 43.4663C80.8424 42.835 75.25 45.2771 75.25 45.2771Z" fill="#F0F3F4"/>
<path d="M90.25 12.2771C90.25 12.2771 92.6585 10.3674 92.9765 9.09209C93.2945 7.81674 92.0644 4.99988 92.0644 4.99988C92.0644 4.99988 93.9741 7.40841 95.2494 7.72639C96.5248 8.04438 99.3416 6.8143 99.3416 6.8143C99.3416 6.8143 96.9331 8.72395 96.6151 9.9993C96.2971 11.2747 97.5272 14.0915 97.5272 14.0915C97.5272 14.0915 95.6176 11.683 94.3422 11.365C93.0669 11.047 90.25 12.2771 90.25 12.2771Z" fill="#F0F3F4"/>
<path d="M99.25 30.6066C99.25 30.6066 100.213 29.8427 100.341 29.3326C100.468 28.8224 99.9758 27.6957 99.9758 27.6957C99.9758 27.6957 100.74 28.6591 101.25 28.7863C101.76 28.9135 102.887 28.4214 102.887 28.4214C102.887 28.4214 101.923 29.1853 101.796 29.6954C101.669 30.2056 102.161 31.3323 102.161 31.3323C102.161 31.3323 101.397 30.3689 100.887 30.2417C100.377 30.1145 99.25 30.6066 99.25 30.6066Z" fill="#F0F3F4"/>
<g filter="url(#filter0_d_323_1608)">
<path d="M50.1279 86C56.5548 86 62.4256 88.3784 66.9101 92.3022C68.0991 93.3426 69.6823 93.8376 71.2523 93.6609C72.1962 93.5547 73.1557 93.5 74.1279 93.5C88.2112 93.5 99.6279 104.917 99.6279 119V119C99.6279 119.843 98.9242 120.5 98.0816 120.5H4.84047C1.81354 120.5 -0.333215 117.547 1.21831 114.948C5.66855 107.493 13.8148 102.5 23.1279 102.5V102.5C24.9288 102.5 26.6042 101.474 27.4265 99.8719C31.6541 91.6354 40.2332 86 50.1279 86Z" fill="#FAFAFA"/>
</g>
<g filter="url(#filter1_d_323_1608)">
<path d="M77.1279 95C83.5548 95 89.4256 97.3784 93.9101 101.302C95.0991 102.343 96.6823 102.838 98.2523 102.661C99.1962 102.555 100.156 102.5 101.128 102.5C115.211 102.5 126.628 113.917 126.628 128V128C126.628 128.843 125.924 129.5 125.082 129.5H31.8405C28.8135 129.5 26.6668 126.547 28.2183 123.948C32.6686 116.493 40.8148 111.5 50.1279 111.5V111.5C51.9288 111.5 53.6042 110.474 54.4265 108.872C58.6541 100.635 67.2332 95 77.1279 95Z" fill="#FAFAFA"/>
</g>
</g>
<defs>
<filter id="filter0_d_323_1608" x="-7.25" y="81.5" width="112.878" height="46.5" filterUnits="userSpaceOnUse" color-interpolation-filters="sRGB">
<feFlood flood-opacity="0" result="BackgroundImageFix"/>
<feColorMatrix in="SourceAlpha" type="matrix" values="0 0 0 0 0 0 0 0 0 0 0 0 0 0 0 0 0 0 127 0" result="hardAlpha"/>
<feOffset dy="1.5"/>
<feGaussianBlur stdDeviation="3"/>
<feComposite in2="hardAlpha" operator="out"/>
<feColorMatrix type="matrix" values="0 0 0 0 0 0 0 0 0 0 0 0 0 0 0 0 0 0 0.25 0"/>
<feBlend mode="normal" in2="BackgroundImageFix" result="effect1_dropShadow_323_1608"/>
<feBlend mode="normal" in="SourceGraphic" in2="effect1_dropShadow_323_1608" result="shape"/>
</filter>
<filter id="filter1_d_323_1608" x="19.75" y="90.5" width="112.878" height="46.5" filterUnits="userSpaceOnUse" color-interpolation-filters="sRGB">
<feFlood flood-opacity="0" result="BackgroundImageFix"/>
<feColorMatrix in="SourceAlpha" type="matrix" values="0 0 0 0 0 0 0 0 0 0 0 0 0 0 0 0 0 0 127 0" result="hardAlpha"/>
<feOffset dy="1.5"/>
<feGaussianBlur stdDeviation="3"/>
<feComposite in2="hardAlpha" operator="out"/>
<feColorMatrix type="matrix" values="0 0 0 0 0 0 0 0 0 0 0 0 0 0 0 0 0 0 0.25 0"/>
<feBlend mode="normal" in2="BackgroundImageFix" result="effect1_dropShadow_323_1608"/>
<feBlend mode="normal" in="SourceGraphic" in2="effect1_dropShadow_323_1608" result="shape"/>
</filter>
<clipPath id="clip0_323_1608">
<rect width="128" height="128" fill="white"/>
</clipPath>
</defs>
</svg>
