<svg width="128" height="128" viewBox="0 0 128 128" fill="none" xmlns="http://www.w3.org/2000/svg">
<g clip-path="url(#clip0_323_1555)">
<g filter="url(#filter0_d_323_1555)">
<path d="M64.7997 35.3125C72.8333 35.3125 80.1718 38.2855 85.7773 43.1903C87.2636 44.4907 89.2426 45.1095 91.2051 44.8886C92.385 44.7559 93.5844 44.6875 94.7997 44.6875C112.404 44.6875 126.675 58.9584 126.675 76.5625V76.5625C126.675 77.6158 125.795 78.4375 124.742 78.4375H8.19037C4.4067 78.4375 1.72325 74.7459 3.66266 71.4971C9.22546 62.1785 19.4083 55.9375 31.0497 55.9375V55.9375C33.3008 55.9375 35.395 54.655 36.4229 52.6523C41.7074 42.3567 52.4313 35.3125 64.7997 35.3125Z" fill="#FAFAFA"/>
</g>
<circle cx="64.187" cy="78.4375" r="16.5" fill="url(#paint0_linear_323_1555)"/>
<path d="M62.0814 81.9336C61.9932 81.9336 61.9137 81.9071 61.8431 81.8541C61.7901 81.7835 61.7636 81.7041 61.7636 81.6158V80.7683C61.7636 79.8854 61.9667 79.1703 62.3728 78.623C62.7789 78.0756 63.3704 77.5106 64.1473 76.928C64.7652 76.4512 65.2243 76.0275 65.5245 75.6567C65.8246 75.2859 65.9747 74.8357 65.9747 74.306C65.9747 73.741 65.7981 73.2907 65.445 72.9553C65.1095 72.6021 64.6505 72.4256 64.0678 72.4256C63.4498 72.4256 62.9554 72.611 62.5847 72.9817C62.2139 73.3349 62.0285 73.8116 62.0285 74.4119V74.8357C62.0285 75.0299 61.9225 75.127 61.7107 75.127L58.6119 74.9946C58.5237 74.9946 58.4442 74.9681 58.3736 74.9151C58.3206 74.8445 58.2941 74.7651 58.2941 74.6768V74.4119C58.2941 73.3525 58.5413 72.4167 59.0357 71.6045C59.5301 70.7747 60.2187 70.139 61.1015 69.6976C62.002 69.2386 63.0261 69.009 64.1737 69.009C65.8688 69.009 67.2195 69.4858 68.2259 70.4392C69.25 71.375 69.762 72.6198 69.762 74.1736C69.762 74.9504 69.6384 75.6214 69.3912 76.1864C69.144 76.7338 68.8439 77.184 68.4908 77.5371C68.1376 77.8903 67.6874 78.2787 67.14 78.7025C66.5574 79.1439 66.1336 79.5235 65.8688 79.8413C65.6039 80.1591 65.4715 80.5476 65.4715 81.0066V81.6158C65.4715 81.7041 65.4362 81.7835 65.3656 81.8541C65.3126 81.9071 65.242 81.9336 65.1537 81.9336H62.0814ZM63.5646 87.8662C62.9643 87.8662 62.4611 87.672 62.055 87.2835C61.6665 86.8774 61.4723 86.3742 61.4723 85.7739C61.4723 85.1736 61.6665 84.6792 62.055 84.2907C62.4434 83.9023 62.9466 83.7081 63.5646 83.7081C64.1826 83.7081 64.6858 83.9023 65.0742 84.2907C65.4627 84.6792 65.6569 85.1736 65.6569 85.7739C65.6569 86.3742 65.4538 86.8774 65.0477 87.2835C64.6593 87.672 64.1649 87.8662 63.5646 87.8662Z" fill="black"/>
</g>
<defs>
<filter id="filter0_d_323_1555" x="-6.92273" y="29.6875" width="141.097" height="58.125" filterUnits="userSpaceOnUse" color-interpolation-filters="sRGB">
<feFlood flood-opacity="0" result="BackgroundImageFix"/>
<feColorMatrix in="SourceAlpha" type="matrix" values="0 0 0 0 0 0 0 0 0 0 0 0 0 0 0 0 0 0 127 0" result="hardAlpha"/>
<feOffset dy="1.875"/>
<feGaussianBlur stdDeviation="3.75"/>
<feComposite in2="hardAlpha" operator="out"/>
<feColorMatrix type="matrix" values="0 0 0 0 0 0 0 0 0 0 0 0 0 0 0 0 0 0 0.25 0"/>
<feBlend mode="normal" in2="BackgroundImageFix" result="effect1_dropShadow_323_1555"/>
<feBlend mode="normal" in="SourceGraphic" in2="effect1_dropShadow_323_1555" result="shape"/>
</filter>
<linearGradient id="paint0_linear_323_1555" x1="64.187" y1="61.9375" x2="64.187" y2="94.9375" gradientUnits="userSpaceOnUse">
<stop stop-color="#FF802A"/>
<stop offset="1" stop-color="#FFB72A"/>
</linearGradient>
<clipPath id="clip0_323_1555">
<rect width="128" height="128" fill="white"/>
</clipPath>
</defs>
</svg>
