<svg width="128" height="128" viewBox="0 0 128 128" fill="none" xmlns="http://www.w3.org/2000/svg">
<g clip-path="url(#clip0_327_532)">
<rect x="36.9254" y="42" width="5.52" height="41.4" rx="2.76" fill="url(#paint0_linear_327_532)"/>
<rect x="49.3453" y="53.04" width="5.52" height="41.4" rx="2.76" fill="url(#paint1_linear_327_532)"/>
<g filter="url(#filter0_d_327_532)">
<path d="M59.569 29.925C66.9599 29.925 73.7113 32.6602 78.8684 37.1726C80.2358 38.369 82.0565 38.9382 83.862 38.7351C84.9475 38.6129 86.0509 38.55 87.169 38.55C103.365 38.55 116.494 51.6793 116.494 67.875V67.875C116.494 68.8441 115.685 69.6 114.716 69.6H7.48841C4.00744 69.6 1.53868 66.2038 3.32294 63.2148C8.44071 54.6418 17.8089 48.9 28.519 48.9V48.9C30.59 48.9 32.5167 47.7202 33.4624 45.8777C38.3241 36.4057 48.1901 29.925 59.569 29.925Z" fill="#FAFAFA"/>
</g>
<g filter="url(#filter1_d_327_532)">
<path d="M81.256 44.76C86.9315 44.76 92.1338 46.7913 96.1824 50.1684C97.5814 51.3353 99.4029 51.9058 101.218 51.7481C101.889 51.6898 102.567 51.66 103.253 51.66C116.161 51.66 126.625 62.1634 126.625 75.12V75.12C126.625 75.8952 125.978 76.5 125.203 76.5H41.1617C37.683 76.5 35.2243 73.0921 37.177 70.2132C41.3828 64.0123 48.4719 59.94 56.509 59.94V59.94C58.159 59.94 59.6942 58.9993 60.4449 57.53C64.3183 49.9481 72.1838 44.76 81.256 44.76Z" fill="#FAFAFA"/>
</g>
<rect x="61.7654" y="79.26" width="5.52" height="11.04" rx="2.76" fill="url(#paint2_linear_327_532)"/>
<rect x="36.9254" y="86.16" width="5.52" height="11.04" rx="2.76" fill="url(#paint3_linear_327_532)"/>
</g>
<defs>
<filter id="filter0_d_327_532" x="-6.41563" y="24.75" width="129.81" height="53.475" filterUnits="userSpaceOnUse" color-interpolation-filters="sRGB">
<feFlood flood-opacity="0" result="BackgroundImageFix"/>
<feColorMatrix in="SourceAlpha" type="matrix" values="0 0 0 0 0 0 0 0 0 0 0 0 0 0 0 0 0 0 127 0" result="hardAlpha"/>
<feOffset dy="1.725"/>
<feGaussianBlur stdDeviation="3.45"/>
<feComposite in2="hardAlpha" operator="out"/>
<feColorMatrix type="matrix" values="0 0 0 0 0 0 0 0 0 0 0 0 0 0 0 0 0 0 0.25 0"/>
<feBlend mode="normal" in2="BackgroundImageFix" result="effect1_dropShadow_327_532"/>
<feBlend mode="normal" in="SourceGraphic" in2="effect1_dropShadow_327_532" result="shape"/>
</filter>
<filter id="filter1_d_327_532" x="27.2653" y="39.585" width="106.26" height="45.54" filterUnits="userSpaceOnUse" color-interpolation-filters="sRGB">
<feFlood flood-opacity="0" result="BackgroundImageFix"/>
<feColorMatrix in="SourceAlpha" type="matrix" values="0 0 0 0 0 0 0 0 0 0 0 0 0 0 0 0 0 0 127 0" result="hardAlpha"/>
<feOffset dy="1.725"/>
<feGaussianBlur stdDeviation="3.45"/>
<feComposite in2="hardAlpha" operator="out"/>
<feColorMatrix type="matrix" values="0 0 0 0 0 0 0 0 0 0 0 0 0 0 0 0 0 0 0.25 0"/>
<feBlend mode="normal" in2="BackgroundImageFix" result="effect1_dropShadow_327_532"/>
<feBlend mode="normal" in="SourceGraphic" in2="effect1_dropShadow_327_532" result="shape"/>
</filter>
<linearGradient id="paint0_linear_327_532" x1="39.6854" y1="42" x2="39.6854" y2="83.4" gradientUnits="userSpaceOnUse">
<stop stop-color="#52C0FF" stop-opacity="0.5"/>
<stop offset="1" stop-color="#ADE1FF"/>
</linearGradient>
<linearGradient id="paint1_linear_327_532" x1="52.1053" y1="53.04" x2="52.1053" y2="94.44" gradientUnits="userSpaceOnUse">
<stop stop-color="#52C0FF" stop-opacity="0.5"/>
<stop offset="1" stop-color="#ADE1FF"/>
</linearGradient>
<linearGradient id="paint2_linear_327_532" x1="64.5254" y1="79.26" x2="64.5254" y2="90.3" gradientUnits="userSpaceOnUse">
<stop stop-color="#52C0FF" stop-opacity="0.5"/>
<stop offset="1" stop-color="#ADE1FF"/>
</linearGradient>
<linearGradient id="paint3_linear_327_532" x1="39.6854" y1="86.16" x2="39.6854" y2="97.2" gradientUnits="userSpaceOnUse">
<stop stop-color="#52C0FF" stop-opacity="0.5"/>
<stop offset="1" stop-color="#ADE1FF"/>
</linearGradient>
<clipPath id="clip0_327_532">
<rect width="128" height="128" fill="white"/>
</clipPath>
</defs>
</svg>
