<svg width="128" height="128" viewBox="0 0 128 128" fill="none" xmlns="http://www.w3.org/2000/svg">
<g clip-path="url(#clip0_324_2210)">
<circle cx="71.806" cy="71.9855" r="5.19079" fill="url(#paint0_linear_324_2210)"/>
<circle cx="52.7731" cy="85.3085" r="5.19079" fill="url(#paint1_linear_324_2210)"/>
<circle cx="96.5488" cy="75.7921" r="5.19079" fill="url(#paint2_linear_324_2210)"/>
<circle cx="81.3224" cy="89.1151" r="5.19079" fill="url(#paint3_linear_324_2210)"/>
<circle cx="67.9994" cy="104.341" r="5.19079" fill="url(#paint4_linear_324_2210)"/>
<g filter="url(#filter0_d_324_2210)">
<path d="M65.1914 24.9224C73.3463 24.9224 80.7954 27.9402 86.4856 32.919C87.9943 34.239 90.0032 34.8671 91.9953 34.643C93.1929 34.5082 94.4104 34.4388 95.6441 34.4388C113.514 34.4388 128 48.9251 128 66.7948V66.7948C128 67.8639 127.107 68.698 126.038 68.698H7.72796C3.88721 68.698 1.16327 64.9507 3.13195 61.6529C8.77867 52.1938 19.1151 45.8586 30.9322 45.8586V45.8586C33.2172 45.8586 35.3431 44.5567 36.3865 42.5238C41.7507 32.0729 52.6364 24.9224 65.1914 24.9224Z" fill="#FAFAFA"/>
</g>
</g>
<defs>
<filter id="filter0_d_324_2210" x="-7.61316" y="19.2125" width="143.226" height="59.002" filterUnits="userSpaceOnUse" color-interpolation-filters="sRGB">
<feFlood flood-opacity="0" result="BackgroundImageFix"/>
<feColorMatrix in="SourceAlpha" type="matrix" values="0 0 0 0 0 0 0 0 0 0 0 0 0 0 0 0 0 0 127 0" result="hardAlpha"/>
<feOffset dy="1.90329"/>
<feGaussianBlur stdDeviation="3.80658"/>
<feComposite in2="hardAlpha" operator="out"/>
<feColorMatrix type="matrix" values="0 0 0 0 0 0 0 0 0 0 0 0 0 0 0 0 0 0 0.25 0"/>
<feBlend mode="normal" in2="BackgroundImageFix" result="effect1_dropShadow_324_2210"/>
<feBlend mode="normal" in="SourceGraphic" in2="effect1_dropShadow_324_2210" result="shape"/>
</filter>
<linearGradient id="paint0_linear_324_2210" x1="71.806" y1="66.7947" x2="71.806" y2="77.1763" gradientUnits="userSpaceOnUse">
<stop stop-color="#DADFE3"/>
<stop offset="1" stop-color="#BBCACE"/>
</linearGradient>
<linearGradient id="paint1_linear_324_2210" x1="52.7731" y1="80.1177" x2="52.7731" y2="90.4993" gradientUnits="userSpaceOnUse">
<stop stop-color="#DADFE3"/>
<stop offset="1" stop-color="#BBCACE"/>
</linearGradient>
<linearGradient id="paint2_linear_324_2210" x1="96.5488" y1="70.6013" x2="96.5488" y2="80.9829" gradientUnits="userSpaceOnUse">
<stop stop-color="#DADFE3"/>
<stop offset="1" stop-color="#BBCACE"/>
</linearGradient>
<linearGradient id="paint3_linear_324_2210" x1="81.3224" y1="83.9243" x2="81.3224" y2="94.3059" gradientUnits="userSpaceOnUse">
<stop stop-color="#DADFE3"/>
<stop offset="1" stop-color="#BBCACE"/>
</linearGradient>
<linearGradient id="paint4_linear_324_2210" x1="67.9994" y1="99.1506" x2="67.9994" y2="109.532" gradientUnits="userSpaceOnUse">
<stop stop-color="#DADFE3"/>
<stop offset="1" stop-color="#BBCACE"/>
</linearGradient>
<clipPath id="clip0_324_2210">
<rect width="128" height="128" fill="white"/>
</clipPath>
</defs>
</svg>
