<svg width="128" height="128" viewBox="0 0 128 128" fill="none" xmlns="http://www.w3.org/2000/svg">
<path d="M70 42.8516C70 42.8516 73.1878 40.324 73.6087 38.636C74.0295 36.948 72.4015 33.2198 72.4015 33.2198C72.4015 33.2198 74.929 36.4076 76.617 36.8285C78.305 37.2493 82.0332 35.6213 82.0332 35.6213C82.0332 35.6213 78.8454 38.1488 78.4246 39.8368C78.0037 41.5248 79.6318 45.253 79.6318 45.253C79.6318 45.253 77.1043 42.0652 75.4163 41.6444C73.7283 41.2235 70 42.8516 70 42.8516Z" fill="#F0F3F4"/>
<path d="M82 29.8516C82 29.8516 83.6057 28.5785 83.8177 27.7282C84.0297 26.878 83.2096 25.0001 83.2096 25.0001C83.2096 25.0001 84.4827 26.6058 85.3329 26.8178C86.1832 27.0297 88.0611 26.2097 88.0611 26.2097C88.0611 26.2097 86.4554 27.4828 86.2434 28.333C86.0314 29.1833 86.8515 31.0612 86.8515 31.0612C86.8515 31.0612 85.5784 29.4555 84.7281 29.2435C83.8779 29.0315 82 29.8516 82 29.8516Z" fill="#F0F3F4"/>
<path d="M88 42.071C88 42.071 88.6423 41.5618 88.7271 41.2217C88.8119 40.8816 88.4838 40.1305 88.4838 40.1305C88.4838 40.1305 88.9931 40.7727 89.3332 40.8575C89.6733 40.9423 90.4244 40.6143 90.4244 40.6143C90.4244 40.6143 89.7822 41.1235 89.6974 41.4636C89.6126 41.8037 89.9406 42.5549 89.9406 42.5549C89.9406 42.5549 89.4314 41.9126 89.0913 41.8278C88.7512 41.743 88 42.071 88 42.071Z" fill="#F0F3F4"/>
<circle cx="67.7273" cy="69.7273" r="2.72727" fill="url(#paint0_linear_324_2240)"/>
<circle cx="57.7273" cy="76.7273" r="2.72727" fill="url(#paint1_linear_324_2240)"/>
<circle cx="80.7273" cy="71.7273" r="2.72727" fill="url(#paint2_linear_324_2240)"/>
<circle cx="72.7273" cy="78.7273" r="2.72727" fill="url(#paint3_linear_324_2240)"/>
<circle cx="65.7273" cy="86.7273" r="2.72727" fill="url(#paint4_linear_324_2240)"/>
<g filter="url(#filter0_d_324_2240)">
<path d="M64.252 45C68.5366 45 72.4504 46.5856 75.44 49.2015C76.2327 49.895 77.2882 50.225 78.3349 50.1073C78.9641 50.0365 79.6038 50 80.252 50C89.6408 50 97.252 57.6112 97.252 67C97.252 67.5617 96.7828 68 96.2211 68H34.0603C32.0424 68 30.6112 66.0311 31.6455 64.2984C34.6124 59.3285 40.0432 56 46.252 56C47.4525 56 48.5695 55.316 49.1177 54.2479C51.9361 48.7569 57.6555 45 64.252 45Z" fill="#FAFAFA"/>
</g>
<defs>
<filter id="filter0_d_324_2240" x="26" y="42" width="75.252" height="31" filterUnits="userSpaceOnUse" color-interpolation-filters="sRGB">
<feFlood flood-opacity="0" result="BackgroundImageFix"/>
<feColorMatrix in="SourceAlpha" type="matrix" values="0 0 0 0 0 0 0 0 0 0 0 0 0 0 0 0 0 0 127 0" result="hardAlpha"/>
<feOffset dy="1"/>
<feGaussianBlur stdDeviation="2"/>
<feComposite in2="hardAlpha" operator="out"/>
<feColorMatrix type="matrix" values="0 0 0 0 0 0 0 0 0 0 0 0 0 0 0 0 0 0 0.25 0"/>
<feBlend mode="normal" in2="BackgroundImageFix" result="effect1_dropShadow_324_2240"/>
<feBlend mode="normal" in="SourceGraphic" in2="effect1_dropShadow_324_2240" result="shape"/>
</filter>
<linearGradient id="paint0_linear_324_2240" x1="67.7273" y1="67" x2="67.7273" y2="72.4545" gradientUnits="userSpaceOnUse">
<stop stop-color="#DADFE3"/>
<stop offset="1" stop-color="#BBCACE"/>
</linearGradient>
<linearGradient id="paint1_linear_324_2240" x1="57.7273" y1="74" x2="57.7273" y2="79.4545" gradientUnits="userSpaceOnUse">
<stop stop-color="#DADFE3"/>
<stop offset="1" stop-color="#BBCACE"/>
</linearGradient>
<linearGradient id="paint2_linear_324_2240" x1="80.7273" y1="69" x2="80.7273" y2="74.4545" gradientUnits="userSpaceOnUse">
<stop stop-color="#DADFE3"/>
<stop offset="1" stop-color="#BBCACE"/>
</linearGradient>
<linearGradient id="paint3_linear_324_2240" x1="72.7273" y1="76" x2="72.7273" y2="81.4545" gradientUnits="userSpaceOnUse">
<stop stop-color="#DADFE3"/>
<stop offset="1" stop-color="#BBCACE"/>
</linearGradient>
<linearGradient id="paint4_linear_324_2240" x1="65.7273" y1="84" x2="65.7273" y2="89.4545" gradientUnits="userSpaceOnUse">
<stop stop-color="#DADFE3"/>
<stop offset="1" stop-color="#BBCACE"/>
</linearGradient>
</defs>
</svg>
