<svg width="128" height="128" viewBox="0 0 128 128" fill="none" xmlns="http://www.w3.org/2000/svg">
<path d="M64.3581 25C67.7559 25 71.0506 25.4437 74.1878 26.2761C63.2535 29.7695 55.3326 40.0442 55.3326 52.1765C55.3326 67.1856 67.4551 79.3529 82.4089 79.3529C90.1179 79.3529 97.0689 76.114 102 70.9244C98.5526 88.6345 83.012 102 64.3581 102C43.1735 102 26 84.763 26 63.5C26 42.237 43.1735 25 64.3581 25Z" fill="#F0F3F4"/>
<path d="M72 51.8514C72 51.8514 75.1878 49.3239 75.6087 47.6359C76.0295 45.9479 74.4015 42.2197 74.4015 42.2197C74.4015 42.2197 76.929 45.4075 78.617 45.8283C80.305 46.2492 84.0332 44.6211 84.0332 44.6211C84.0332 44.6211 80.8454 47.1487 80.4246 48.8367C80.0037 50.5247 81.6318 54.2529 81.6318 54.2529C81.6318 54.2529 79.1043 51.0651 77.4163 50.6442C75.7283 50.2234 72 51.8514 72 51.8514Z" fill="#F0F3F4"/>
<path d="M82 29.8514C82 29.8514 83.6057 28.5783 83.8177 27.7281C84.0297 26.8779 83.2096 25 83.2096 25C83.2096 25 84.4827 26.6056 85.3329 26.8176C86.1832 27.0296 88.0611 26.2096 88.0611 26.2096C88.0611 26.2096 86.4554 27.4827 86.2434 28.3329C86.0314 29.1831 86.8515 31.061 86.8515 31.061C86.8515 31.061 85.5784 29.4554 84.7281 29.2434C83.8779 29.0314 82 29.8514 82 29.8514Z" fill="#F0F3F4"/>
<path d="M88 42.071C88 42.071 88.6423 41.5618 88.7271 41.2217C88.8119 40.8816 88.4838 40.1305 88.4838 40.1305C88.4838 40.1305 88.9931 40.7727 89.3332 40.8575C89.6733 40.9423 90.4244 40.6143 90.4244 40.6143C90.4244 40.6143 89.7822 41.1235 89.6974 41.4636C89.6126 41.8037 89.9406 42.5549 89.9406 42.5549C89.9406 42.5549 89.4314 41.9126 89.0913 41.8278C88.7512 41.743 88 42.071 88 42.071Z" fill="#F0F3F4"/>
<g filter="url(#filter0_d_324_1686)">
<path d="M55.252 82C59.5366 82 63.4504 83.5856 66.44 86.2015C67.2327 86.895 68.2882 87.225 69.3349 87.1073C69.9641 87.0365 70.6038 87 71.252 87C80.6408 87 88.252 94.6112 88.252 104C88.252 104.562 87.7828 105 87.2211 105H25.0603C23.0424 105 21.6112 103.031 22.6455 101.298C25.6124 96.3285 31.0432 93 37.252 93C38.4525 93 39.5695 92.316 40.1177 91.2479C42.9361 85.7569 48.6555 82 55.252 82Z" fill="#FAFAFA"/>
</g>
<defs>
<filter id="filter0_d_324_1686" x="17" y="79" width="75.252" height="31" filterUnits="userSpaceOnUse" color-interpolation-filters="sRGB">
<feFlood flood-opacity="0" result="BackgroundImageFix"/>
<feColorMatrix in="SourceAlpha" type="matrix" values="0 0 0 0 0 0 0 0 0 0 0 0 0 0 0 0 0 0 127 0" result="hardAlpha"/>
<feOffset dy="1"/>
<feGaussianBlur stdDeviation="2"/>
<feComposite in2="hardAlpha" operator="out"/>
<feColorMatrix type="matrix" values="0 0 0 0 0 0 0 0 0 0 0 0 0 0 0 0 0 0 0.25 0"/>
<feBlend mode="normal" in2="BackgroundImageFix" result="effect1_dropShadow_324_1686"/>
<feBlend mode="normal" in="SourceGraphic" in2="effect1_dropShadow_324_1686" result="shape"/>
</filter>
</defs>
</svg>
