<svg width="128" height="128" viewBox="0 0 128 128" fill="none" xmlns="http://www.w3.org/2000/svg">
<g filter="url(#filter0_d_323_1504)">
<path d="M64.4084 45.25C69.7642 45.25 74.6565 47.232 78.3935 50.5018C79.3844 51.3688 80.7037 51.7813 82.0121 51.6341C82.7987 51.5456 83.5982 51.5 84.4084 51.5C96.1445 51.5 105.658 61.0139 105.658 72.75V72.75C105.658 73.4522 105.072 74 104.37 74H26.6689C24.1465 74 22.3575 71.5389 23.6504 69.373C27.359 63.1607 34.1475 59 41.9084 59V59C43.4092 59 44.8053 58.145 45.4906 56.8099C49.0136 49.9462 56.1629 45.25 64.4084 45.25Z" fill="#FAFAFA"/>
</g>
<circle cx="64.0935" cy="74" r="10.9375" fill="url(#paint0_linear_323_1504)"/>
<path d="M64.0935 77.9062C64.9565 77.9062 65.656 78.6058 65.656 79.4688C65.656 80.3317 64.9565 81.0312 64.0935 81.0312C63.2306 81.0312 62.531 80.3317 62.531 79.4688C62.531 78.6058 63.2306 77.9062 64.0935 77.9062Z" fill="black"/>
<path d="M64.0935 66.1875C64.9565 66.1875 65.656 66.8871 65.656 67.75V74.7812C65.656 75.6442 64.9565 76.3438 64.0935 76.3438C63.2306 76.3438 62.531 75.6442 62.531 74.7812V67.75C62.531 66.8871 63.2306 66.1875 64.0935 66.1875Z" fill="black"/>
<defs>
<filter id="filter0_d_323_1504" x="16.5935" y="41.5" width="94.0649" height="38.75" filterUnits="userSpaceOnUse" color-interpolation-filters="sRGB">
<feFlood flood-opacity="0" result="BackgroundImageFix"/>
<feColorMatrix in="SourceAlpha" type="matrix" values="0 0 0 0 0 0 0 0 0 0 0 0 0 0 0 0 0 0 127 0" result="hardAlpha"/>
<feOffset dy="1.25"/>
<feGaussianBlur stdDeviation="2.5"/>
<feComposite in2="hardAlpha" operator="out"/>
<feColorMatrix type="matrix" values="0 0 0 0 0 0 0 0 0 0 0 0 0 0 0 0 0 0 0.25 0"/>
<feBlend mode="normal" in2="BackgroundImageFix" result="effect1_dropShadow_323_1504"/>
<feBlend mode="normal" in="SourceGraphic" in2="effect1_dropShadow_323_1504" result="shape"/>
</filter>
<linearGradient id="paint0_linear_323_1504" x1="64.0935" y1="63.0625" x2="64.0935" y2="84.9375" gradientUnits="userSpaceOnUse">
<stop stop-color="#D22828"/>
<stop offset="1" stop-color="#CF7316"/>
</linearGradient>
</defs>
</svg>
