<svg width="128" height="128" viewBox="0 0 128 128" fill="none" xmlns="http://www.w3.org/2000/svg">
<rect x="40" y="79" width="4" height="8" rx="2" fill="url(#paint0_linear_324_1724)"/>
<rect x="47" y="85" width="4" height="8" rx="2" fill="url(#paint1_linear_324_1724)"/>
<g filter="url(#filter0_d_324_1724)">
<path d="M64.4084 45.25C69.7642 45.25 74.6565 47.232 78.3935 50.5018C79.3844 51.3688 80.7037 51.7813 82.0121 51.6341C82.7987 51.5456 83.5982 51.5 84.4084 51.5C96.1445 51.5 105.658 61.0139 105.658 72.75V72.75C105.658 73.4522 105.072 74 104.37 74H26.6689C24.1465 74 22.3575 71.5389 23.6504 69.373C27.359 63.1607 34.1475 59 41.9084 59V59C43.4092 59 44.8053 58.145 45.4906 56.8099C49.0136 49.9462 56.1629 45.25 64.4084 45.25Z" fill="#FAFAFA"/>
</g>
<defs>
<filter id="filter0_d_324_1724" x="16.5935" y="41.5" width="94.0649" height="38.75" filterUnits="userSpaceOnUse" color-interpolation-filters="sRGB">
<feFlood flood-opacity="0" result="BackgroundImageFix"/>
<feColorMatrix in="SourceAlpha" type="matrix" values="0 0 0 0 0 0 0 0 0 0 0 0 0 0 0 0 0 0 127 0" result="hardAlpha"/>
<feOffset dy="1.25"/>
<feGaussianBlur stdDeviation="2.5"/>
<feComposite in2="hardAlpha" operator="out"/>
<feColorMatrix type="matrix" values="0 0 0 0 0 0 0 0 0 0 0 0 0 0 0 0 0 0 0.25 0"/>
<feBlend mode="normal" in2="BackgroundImageFix" result="effect1_dropShadow_324_1724"/>
<feBlend mode="normal" in="SourceGraphic" in2="effect1_dropShadow_324_1724" result="shape"/>
</filter>
<linearGradient id="paint0_linear_324_1724" x1="42" y1="79" x2="42" y2="87" gradientUnits="userSpaceOnUse">
<stop stop-color="#52C0FF" stop-opacity="0.5"/>
<stop offset="1" stop-color="#ADE1FF"/>
</linearGradient>
<linearGradient id="paint1_linear_324_1724" x1="49" y1="85" x2="49" y2="93" gradientUnits="userSpaceOnUse">
<stop stop-color="#52C0FF" stop-opacity="0.5"/>
<stop offset="1" stop-color="#ADE1FF"/>
</linearGradient>
</defs>
</svg>
