<svg width="128" height="128" viewBox="0 0 128 128" fill="none" xmlns="http://www.w3.org/2000/svg">
<g filter="url(#filter0_d_322_1320)">
<path d="M64.252 46C68.5366 46 72.4504 47.5856 75.44 50.2015C76.2327 50.895 77.2882 51.225 78.3349 51.1073C78.9641 51.0365 79.6038 51 80.252 51C89.6408 51 97.252 58.6112 97.252 68C97.252 68.5617 96.7828 69 96.2211 69H34.0603C32.0424 69 30.6112 67.0311 31.6455 65.2984C34.6124 60.3285 40.0432 57 46.252 57C47.4525 57 48.5695 56.316 49.1177 55.2479C51.9361 49.7569 57.6555 46 64.252 46Z" fill="#D9D9D9"/>
</g>
<rect x="70" y="71" width="27" height="4" rx="2" fill="url(#paint0_linear_322_1320)"/>
<rect x="53" y="77" width="40" height="4" rx="2" fill="url(#paint1_linear_322_1320)"/>
<rect x="32" y="71" width="35" height="4" rx="2" fill="url(#paint2_linear_322_1320)"/>
<rect x="35" y="77" width="14" height="4" rx="2" fill="url(#paint3_linear_322_1320)"/>
<defs>
<filter id="filter0_d_322_1320" x="26" y="43" width="75.252" height="31" filterUnits="userSpaceOnUse" color-interpolation-filters="sRGB">
<feFlood flood-opacity="0" result="BackgroundImageFix"/>
<feColorMatrix in="SourceAlpha" type="matrix" values="0 0 0 0 0 0 0 0 0 0 0 0 0 0 0 0 0 0 127 0" result="hardAlpha"/>
<feOffset dy="1"/>
<feGaussianBlur stdDeviation="2"/>
<feComposite in2="hardAlpha" operator="out"/>
<feColorMatrix type="matrix" values="0 0 0 0 0 0 0 0 0 0 0 0 0 0 0 0 0 0 0.25 0"/>
<feBlend mode="normal" in2="BackgroundImageFix" result="effect1_dropShadow_322_1320"/>
<feBlend mode="normal" in="SourceGraphic" in2="effect1_dropShadow_322_1320" result="shape"/>
</filter>
<linearGradient id="paint0_linear_322_1320" x1="97" y1="73" x2="70" y2="73" gradientUnits="userSpaceOnUse">
<stop stop-color="#D9D9D9"/>
<stop offset="1" stop-color="#737373" stop-opacity="0"/>
</linearGradient>
<linearGradient id="paint1_linear_322_1320" x1="93" y1="79" x2="53" y2="79" gradientUnits="userSpaceOnUse">
<stop stop-color="#D9D9D9"/>
<stop offset="1" stop-color="#737373" stop-opacity="0"/>
</linearGradient>
<linearGradient id="paint2_linear_322_1320" x1="67" y1="73" x2="32" y2="73" gradientUnits="userSpaceOnUse">
<stop stop-color="#D9D9D9"/>
<stop offset="1" stop-color="#737373" stop-opacity="0"/>
</linearGradient>
<linearGradient id="paint3_linear_322_1320" x1="49" y1="79" x2="35" y2="79" gradientUnits="userSpaceOnUse">
<stop stop-color="#D9D9D9"/>
<stop offset="1" stop-color="#737373" stop-opacity="0"/>
</linearGradient>
</defs>
</svg>
