<svg width="128" height="128" viewBox="0 0 128 128" fill="none" xmlns="http://www.w3.org/2000/svg">
<g filter="url(#filter0_d_323_1577)">
<circle cx="58.5" cy="63.5" r="38.5" fill="url(#paint0_linear_323_1577)" shape-rendering="crispEdges"/>
</g>
<g filter="url(#filter1_d_323_1577)">
<path d="M59.252 84C63.5366 84 67.4504 85.5856 70.44 88.2015C71.2327 88.895 72.2882 89.225 73.3349 89.1073C73.9641 89.0365 74.6038 89 75.252 89C84.6408 89 92.252 96.6112 92.252 106C92.252 106.562 91.7828 107 91.2211 107H29.0603C27.0424 107 25.6112 105.031 26.6455 103.298C29.6124 98.3285 35.0432 95 41.252 95C42.4525 95 43.5695 94.316 44.1177 93.2479C46.9361 87.7569 52.6555 84 59.252 84Z" fill="#FAFAFA"/>
</g>
<defs>
<filter id="filter0_d_323_1577" x="16" y="25" width="85" height="85" filterUnits="userSpaceOnUse" color-interpolation-filters="sRGB">
<feFlood flood-opacity="0" result="BackgroundImageFix"/>
<feColorMatrix in="SourceAlpha" type="matrix" values="0 0 0 0 0 0 0 0 0 0 0 0 0 0 0 0 0 0 127 0" result="hardAlpha"/>
<feOffset dy="4"/>
<feGaussianBlur stdDeviation="2"/>
<feComposite in2="hardAlpha" operator="out"/>
<feColorMatrix type="matrix" values="0 0 0 0 0 0 0 0 0 0 0 0 0 0 0 0 0 0 0.25 0"/>
<feBlend mode="normal" in2="BackgroundImageFix" result="effect1_dropShadow_323_1577"/>
<feBlend mode="normal" in="SourceGraphic" in2="effect1_dropShadow_323_1577" result="shape"/>
</filter>
<filter id="filter1_d_323_1577" x="21" y="81" width="75.252" height="31" filterUnits="userSpaceOnUse" color-interpolation-filters="sRGB">
<feFlood flood-opacity="0" result="BackgroundImageFix"/>
<feColorMatrix in="SourceAlpha" type="matrix" values="0 0 0 0 0 0 0 0 0 0 0 0 0 0 0 0 0 0 127 0" result="hardAlpha"/>
<feOffset dy="1"/>
<feGaussianBlur stdDeviation="2"/>
<feComposite in2="hardAlpha" operator="out"/>
<feColorMatrix type="matrix" values="0 0 0 0 0 0 0 0 0 0 0 0 0 0 0 0 0 0 0.25 0"/>
<feBlend mode="normal" in2="BackgroundImageFix" result="effect1_dropShadow_323_1577"/>
<feBlend mode="normal" in="SourceGraphic" in2="effect1_dropShadow_323_1577" result="shape"/>
</filter>
<linearGradient id="paint0_linear_323_1577" x1="58.5" y1="25" x2="30" y2="64" gradientUnits="userSpaceOnUse">
<stop stop-color="#FFF952" stop-opacity="0.8"/>
<stop offset="1" stop-color="#FFE204"/>
</linearGradient>
</defs>
</svg>
