<svg width="128" height="128" viewBox="0 0 128 128" fill="none" xmlns="http://www.w3.org/2000/svg">
<g filter="url(#filter0_d_323_1555)">
<path d="M64.4084 45.25C69.7642 45.25 74.6565 47.232 78.3935 50.5018C79.3844 51.3688 80.7037 51.7813 82.0121 51.6341C82.7987 51.5456 83.5982 51.5 84.4084 51.5C96.1445 51.5 105.658 61.0139 105.658 72.75V72.75C105.658 73.4522 105.072 74 104.37 74H26.6689C24.1465 74 22.3575 71.5389 23.6504 69.373C27.359 63.1607 34.1475 59 41.9084 59V59C43.4092 59 44.8053 58.145 45.4906 56.8099C49.0136 49.9462 56.1629 45.25 64.4084 45.25Z" fill="#FAFAFA"/>
</g>
<circle cx="64" cy="74" r="11" fill="url(#paint0_linear_323_1555)"/>
<path d="M62.5963 76.3307C62.5374 76.3307 62.4845 76.3131 62.4374 76.2778C62.4021 76.2307 62.3844 76.1777 62.3844 76.1188V75.5538C62.3844 74.9653 62.5198 74.4886 62.7905 74.1237C63.0612 73.7588 63.4556 73.3821 63.9735 72.9936C64.3855 72.6758 64.6915 72.3933 64.8916 72.1461C65.0917 71.8989 65.1918 71.5988 65.1918 71.2457C65.1918 70.869 65.0741 70.5688 64.8387 70.3452C64.615 70.1098 64.309 69.992 63.9205 69.992C63.5085 69.992 63.179 70.1156 62.9318 70.3628C62.6846 70.5983 62.561 70.9161 62.561 71.3163V71.5988C62.561 71.7283 62.4904 71.793 62.3491 71.793L60.2833 71.7047C60.2244 71.7047 60.1715 71.6871 60.1244 71.6518C60.0891 71.6047 60.0714 71.5517 60.0714 71.4928V71.3163C60.0714 70.61 60.2362 69.9862 60.5658 69.4447C60.8954 68.8915 61.3544 68.4677 61.943 68.1734C62.5433 67.8674 63.226 67.7144 63.9912 67.7144C65.1212 67.7144 66.0217 68.0322 66.6926 68.6678C67.3753 69.2917 67.7167 70.1215 67.7167 71.1574C67.7167 71.6753 67.6343 72.1226 67.4695 72.4993C67.3047 72.8642 67.1046 73.1643 66.8692 73.3997C66.6337 73.6352 66.3336 73.8941 65.9687 74.1766C65.5802 74.4709 65.2977 74.724 65.1212 74.9359C64.9446 75.1477 64.8563 75.4067 64.8563 75.7127V76.1188C64.8563 76.1777 64.8328 76.2307 64.7857 76.2778C64.7504 76.3131 64.7033 76.3307 64.6444 76.3307H62.5963ZM63.5851 80.2858C63.1848 80.2858 62.8494 80.1563 62.5786 79.8973C62.3197 79.6266 62.1902 79.2911 62.1902 78.8909C62.1902 78.4907 62.3197 78.1611 62.5786 77.9022C62.8376 77.6432 63.1731 77.5137 63.5851 77.5137C63.997 77.5137 64.3325 77.6432 64.5915 77.9022C64.8504 78.1611 64.9799 78.4907 64.9799 78.8909C64.9799 79.2911 64.8446 79.6266 64.5738 79.8973C64.3149 80.1563 63.9853 80.2858 63.5851 80.2858Z" fill="black"/>
<defs>
<filter id="filter0_d_323_1555" x="16.5935" y="41.5" width="94.0649" height="38.75" filterUnits="userSpaceOnUse" color-interpolation-filters="sRGB">
<feFlood flood-opacity="0" result="BackgroundImageFix"/>
<feColorMatrix in="SourceAlpha" type="matrix" values="0 0 0 0 0 0 0 0 0 0 0 0 0 0 0 0 0 0 127 0" result="hardAlpha"/>
<feOffset dy="1.25"/>
<feGaussianBlur stdDeviation="2.5"/>
<feComposite in2="hardAlpha" operator="out"/>
<feColorMatrix type="matrix" values="0 0 0 0 0 0 0 0 0 0 0 0 0 0 0 0 0 0 0.25 0"/>
<feBlend mode="normal" in2="BackgroundImageFix" result="effect1_dropShadow_323_1555"/>
<feBlend mode="normal" in="SourceGraphic" in2="effect1_dropShadow_323_1555" result="shape"/>
</filter>
<linearGradient id="paint0_linear_323_1555" x1="64" y1="63" x2="64" y2="85" gradientUnits="userSpaceOnUse">
<stop stop-color="#FF802A"/>
<stop offset="1" stop-color="#FFB72A"/>
</linearGradient>
</defs>
</svg>
