<svg width="128" height="128" viewBox="0 0 128 128" fill="none" xmlns="http://www.w3.org/2000/svg">
<path d="M64.3581 25C67.7559 25 71.0506 25.4437 74.1878 26.2761C63.2535 29.7695 55.3326 40.0442 55.3326 52.1765C55.3326 67.1856 67.4551 79.3529 82.4089 79.3529C90.1179 79.3529 97.0689 76.114 102 70.9244C98.5526 88.6345 83.012 102 64.3581 102C43.1735 102 26 84.763 26 63.5C26 42.237 43.1735 25 64.3581 25Z" fill="#F0F3F4"/>
<path d="M72 51.8516C72 51.8516 75.1878 49.324 75.6087 47.636C76.0295 45.948 74.4015 42.2198 74.4015 42.2198C74.4015 42.2198 76.929 45.4076 78.617 45.8285C80.305 46.2493 84.0332 44.6213 84.0332 44.6213C84.0332 44.6213 80.8454 47.1488 80.4246 48.8368C80.0037 50.5248 81.6318 54.253 81.6318 54.253C81.6318 54.253 79.1043 51.0652 77.4163 50.6444C75.7283 50.2235 72 51.8516 72 51.8516Z" fill="#F0F3F4"/>
<path d="M82 29.8516C82 29.8516 83.6057 28.5785 83.8177 27.7282C84.0297 26.878 83.2096 25.0001 83.2096 25.0001C83.2096 25.0001 84.4827 26.6058 85.3329 26.8178C86.1832 27.0297 88.0611 26.2097 88.0611 26.2097C88.0611 26.2097 86.4554 27.4828 86.2434 28.333C86.0314 29.1833 86.8515 31.0612 86.8515 31.0612C86.8515 31.0612 85.5784 29.4555 84.7281 29.2435C83.8779 29.0315 82 29.8516 82 29.8516Z" fill="#F0F3F4"/>
<path d="M88 42.071C88 42.071 88.6423 41.5618 88.7271 41.2217C88.8119 40.8816 88.4838 40.1305 88.4838 40.1305C88.4838 40.1305 88.9931 40.7727 89.3332 40.8575C89.6733 40.9423 90.4244 40.6143 90.4244 40.6143C90.4244 40.6143 89.7822 41.1235 89.6974 41.4636C89.6126 41.8037 89.9406 42.5549 89.9406 42.5549C89.9406 42.5549 89.4314 41.9126 89.0913 41.8278C88.7512 41.743 88 42.071 88 42.071Z" fill="#F0F3F4"/>
<g filter="url(#filter0_d_324_1780)">
<path d="M53.252 77C57.5366 77 61.4504 78.5856 64.44 81.2015C65.2327 81.895 66.2882 82.225 67.3349 82.1073C67.9641 82.0365 68.6038 82 69.252 82C78.6408 82 86.252 89.6112 86.252 99C86.252 99.5617 85.7828 100 85.2211 100H23.0603C21.0424 100 19.6112 98.0311 20.6455 96.2984C23.6124 91.3285 29.0432 88 35.252 88C36.4525 88 37.5695 87.316 38.1177 86.2479C40.9361 80.7569 46.6555 77 53.252 77Z" fill="#FAFAFA"/>
</g>
<g filter="url(#filter1_d_324_1780)">
<path d="M71.252 83C75.5366 83 79.4504 84.5856 82.44 87.2015C83.2327 87.895 84.2882 88.225 85.3349 88.1073C85.9641 88.0365 86.6038 88 87.252 88C96.6408 88 104.252 95.6112 104.252 105C104.252 105.562 103.783 106 103.221 106H41.0603C39.0424 106 37.6112 104.031 38.6455 102.298C41.6124 97.3285 47.0432 94 53.252 94C54.4525 94 55.5695 93.316 56.1177 92.2479C58.9361 86.7569 64.6555 83 71.252 83Z" fill="#FAFAFA"/>
</g>
<defs>
<filter id="filter0_d_324_1780" x="15" y="74" width="75.252" height="31" filterUnits="userSpaceOnUse" color-interpolation-filters="sRGB">
<feFlood flood-opacity="0" result="BackgroundImageFix"/>
<feColorMatrix in="SourceAlpha" type="matrix" values="0 0 0 0 0 0 0 0 0 0 0 0 0 0 0 0 0 0 127 0" result="hardAlpha"/>
<feOffset dy="1"/>
<feGaussianBlur stdDeviation="2"/>
<feComposite in2="hardAlpha" operator="out"/>
<feColorMatrix type="matrix" values="0 0 0 0 0 0 0 0 0 0 0 0 0 0 0 0 0 0 0.25 0"/>
<feBlend mode="normal" in2="BackgroundImageFix" result="effect1_dropShadow_324_1780"/>
<feBlend mode="normal" in="SourceGraphic" in2="effect1_dropShadow_324_1780" result="shape"/>
</filter>
<filter id="filter1_d_324_1780" x="33" y="80" width="75.252" height="31" filterUnits="userSpaceOnUse" color-interpolation-filters="sRGB">
<feFlood flood-opacity="0" result="BackgroundImageFix"/>
<feColorMatrix in="SourceAlpha" type="matrix" values="0 0 0 0 0 0 0 0 0 0 0 0 0 0 0 0 0 0 127 0" result="hardAlpha"/>
<feOffset dy="1"/>
<feGaussianBlur stdDeviation="2"/>
<feComposite in2="hardAlpha" operator="out"/>
<feColorMatrix type="matrix" values="0 0 0 0 0 0 0 0 0 0 0 0 0 0 0 0 0 0 0.25 0"/>
<feBlend mode="normal" in2="BackgroundImageFix" result="effect1_dropShadow_324_1780"/>
<feBlend mode="normal" in="SourceGraphic" in2="effect1_dropShadow_324_1780" result="shape"/>
</filter>
</defs>
</svg>
