<svg width="128" height="128" viewBox="0 0 128 128" fill="none" xmlns="http://www.w3.org/2000/svg">
<circle cx="82.7273" cy="72.7273" r="2.72727" fill="url(#paint0_linear_324_2125)"/>
<circle cx="75.7273" cy="66.7273" r="2.72727" fill="url(#paint1_linear_324_2125)"/>
<circle cx="45.7273" cy="77.7273" r="2.72727" fill="url(#paint2_linear_324_2125)"/>
<circle cx="54.7273" cy="74.7273" r="2.72727" fill="url(#paint3_linear_324_2125)"/>
<circle cx="62.7273" cy="69.7273" r="2.72727" fill="url(#paint4_linear_324_2125)"/>
<circle cx="48.7273" cy="67.7273" r="2.72727" fill="url(#paint5_linear_324_2125)"/>
<circle cx="63.7273" cy="79.7273" r="2.72727" fill="url(#paint6_linear_324_2125)"/>
<circle cx="73.7273" cy="75.7273" r="2.72727" fill="url(#paint7_linear_324_2125)"/>
<g filter="url(#filter0_d_324_2125)">
<path d="M64.252 45C68.5366 45 72.4504 46.5856 75.44 49.2015C76.2327 49.895 77.2882 50.225 78.3349 50.1073C78.9641 50.0365 79.6038 50 80.252 50C89.6408 50 97.252 57.6112 97.252 67C97.252 67.5617 96.7828 68 96.2211 68H34.0603C32.0424 68 30.6112 66.0311 31.6455 64.2984C34.6124 59.3285 40.0432 56 46.252 56C47.4525 56 48.5695 55.316 49.1177 54.2479C51.9361 48.7569 57.6555 45 64.252 45Z" fill="#FAFAFA"/>
</g>
<path d="M81 42.8516C81 42.8516 84.1878 40.324 84.6087 38.636C85.0295 36.948 83.4015 33.2198 83.4015 33.2198C83.4015 33.2198 85.929 36.4076 87.617 36.8285C89.305 37.2493 93.0332 35.6213 93.0332 35.6213C93.0332 35.6213 89.8454 38.1488 89.4246 39.8368C89.0037 41.5248 90.6318 45.253 90.6318 45.253C90.6318 45.253 88.1043 42.0652 86.4163 41.6444C84.7283 41.2235 81 42.8516 81 42.8516Z" fill="#F0F3F4"/>
<path d="M69 32.8516C69 32.8516 70.6057 31.5785 70.8177 30.7282C71.0297 29.878 70.2096 28.0001 70.2096 28.0001C70.2096 28.0001 71.4827 29.6058 72.3329 29.8178C73.1832 30.0297 75.0611 29.2097 75.0611 29.2097C75.0611 29.2097 73.4554 30.4828 73.2434 31.333C73.0314 32.1833 73.8515 34.0612 73.8515 34.0612C73.8515 34.0612 72.5784 32.4555 71.7281 32.2435C70.8779 32.0315 69 32.8516 69 32.8516Z" fill="#F0F3F4"/>
<path d="M97 33.0708C97 33.0708 97.6423 32.5616 97.7271 32.2215C97.8119 31.8814 97.4838 31.1302 97.4838 31.1302C97.4838 31.1302 97.9931 31.7725 98.3332 31.8573C98.6733 31.9421 99.4244 31.6141 99.4244 31.6141C99.4244 31.6141 98.7822 32.1233 98.6974 32.4634C98.6126 32.8035 98.9406 33.5546 98.9406 33.5546C98.9406 33.5546 98.4314 32.9124 98.0913 32.8276C97.7512 32.7428 97 33.0708 97 33.0708Z" fill="#F0F3F4"/>
<defs>
<filter id="filter0_d_324_2125" x="26" y="42" width="75.252" height="31" filterUnits="userSpaceOnUse" color-interpolation-filters="sRGB">
<feFlood flood-opacity="0" result="BackgroundImageFix"/>
<feColorMatrix in="SourceAlpha" type="matrix" values="0 0 0 0 0 0 0 0 0 0 0 0 0 0 0 0 0 0 127 0" result="hardAlpha"/>
<feOffset dy="1"/>
<feGaussianBlur stdDeviation="2"/>
<feComposite in2="hardAlpha" operator="out"/>
<feColorMatrix type="matrix" values="0 0 0 0 0 0 0 0 0 0 0 0 0 0 0 0 0 0 0.25 0"/>
<feBlend mode="normal" in2="BackgroundImageFix" result="effect1_dropShadow_324_2125"/>
<feBlend mode="normal" in="SourceGraphic" in2="effect1_dropShadow_324_2125" result="shape"/>
</filter>
<linearGradient id="paint0_linear_324_2125" x1="82.7273" y1="70" x2="82.7273" y2="75.4545" gradientUnits="userSpaceOnUse">
<stop stop-color="#DADFE3"/>
<stop offset="1" stop-color="#BBCACE"/>
</linearGradient>
<linearGradient id="paint1_linear_324_2125" x1="75.7273" y1="64" x2="75.7273" y2="69.4545" gradientUnits="userSpaceOnUse">
<stop stop-color="#DADFE3"/>
<stop offset="1" stop-color="#BBCACE"/>
</linearGradient>
<linearGradient id="paint2_linear_324_2125" x1="45.7273" y1="75" x2="45.7273" y2="80.4545" gradientUnits="userSpaceOnUse">
<stop stop-color="#DADFE3"/>
<stop offset="1" stop-color="#BBCACE"/>
</linearGradient>
<linearGradient id="paint3_linear_324_2125" x1="54.7273" y1="72" x2="54.7273" y2="77.4545" gradientUnits="userSpaceOnUse">
<stop stop-color="#DADFE3"/>
<stop offset="1" stop-color="#BBCACE"/>
</linearGradient>
<linearGradient id="paint4_linear_324_2125" x1="62.7273" y1="67" x2="62.7273" y2="72.4545" gradientUnits="userSpaceOnUse">
<stop stop-color="#DADFE3"/>
<stop offset="1" stop-color="#BBCACE"/>
</linearGradient>
<linearGradient id="paint5_linear_324_2125" x1="48.7273" y1="65" x2="48.7273" y2="70.4545" gradientUnits="userSpaceOnUse">
<stop stop-color="#DADFE3"/>
<stop offset="1" stop-color="#BBCACE"/>
</linearGradient>
<linearGradient id="paint6_linear_324_2125" x1="63.7273" y1="77" x2="63.7273" y2="82.4545" gradientUnits="userSpaceOnUse">
<stop stop-color="#DADFE3"/>
<stop offset="1" stop-color="#BBCACE"/>
</linearGradient>
<linearGradient id="paint7_linear_324_2125" x1="73.7273" y1="73" x2="73.7273" y2="78.4545" gradientUnits="userSpaceOnUse">
<stop stop-color="#DADFE3"/>
<stop offset="1" stop-color="#BBCACE"/>
</linearGradient>
</defs>
</svg>
